<?xml version="1.0" encoding="UTF-8"?>
<svg width="341px" height="347px" viewBox="0 0 341 347" version="1.1" xmlns="http://www.w3.org/2000/svg" xmlns:xlink="http://www.w3.org/1999/xlink">
    <title>Group 7</title>
    <defs>
        <polygon id="path-1" points="0 0 14.082 0 14.082 22.8117 0 22.8117"></polygon>
    </defs>
    <g id="Images" stroke="none" stroke-width="1" fill="none" fill-rule="evenodd">
        <g id="homepage---desktop" transform="translate(-547.000000, -3724.000000)">
            <g id="Group-9" transform="translate(-161.567866, 3582.212599)">
                <g id="Group-126" transform="translate(709.341786, 142.473063)">
                    <polygon id="Fill-1" fill="#000000" points="317.715761 152.8507 317.880761 155.2137 335.697761 158.1747 318.457761 163.5127 318.627761 165.9387 339.475761 171.4487 339.278761 168.6067 319.228761 164.9027 338.611761 159.0297 338.474761 157.0507 318.475761 154.0807 337.807761 147.4737 337.600761 144.5047"></polygon>
                    <g id="Group-125">
                        <path d="M328.209261,174.4757 C328.126261,174.4287 328.039261,174.3757 327.946261,174.3187 C327.854261,174.2597 327.756261,174.2067 327.652261,174.1597 L327.169261,183.8747 C327.933261,183.8497 328.625261,183.6857 329.244261,183.3857 C329.863261,183.0847 330.377261,182.6577 330.786261,182.1007 C330.788261,182.0577 330.812261,182.0167 330.856261,181.9767 C330.857261,181.9547 330.863261,181.9397 330.874261,181.9287 C330.885261,181.9187 330.891261,181.9037 330.892261,181.8817 L331.100261,181.5397 C331.313261,181.1017 331.433261,180.5947 331.462261,180.0197 C331.493261,179.4017 331.397261,178.7777 331.173261,178.1477 C330.675261,176.6487 329.688261,175.4247 328.209261,174.4757 M322.934261,182.7037 C323.244261,182.9117 323.588261,183.0887 323.965261,183.2357 L323.847261,185.6007 C323.023261,185.4107 322.266261,185.0837 321.573261,184.6217 C320.880261,184.1607 320.289261,183.6027 319.798261,182.9487 C319.307261,182.2927 318.932261,181.5647 318.673261,180.7617 C318.414261,179.9577 318.307261,179.1097 318.352261,178.2147 C318.404261,177.1487 318.677261,176.1587 319.170261,175.2437 C319.217261,175.1607 319.258261,175.0817 319.294261,175.0087 C319.330261,174.9357 319.370261,174.8697 319.416261,174.8067 C319.461261,174.7457 319.497261,174.6877 319.520261,174.6357 C319.544261,174.5837 319.578261,174.5377 319.623261,174.4967 C319.669261,174.4357 319.714261,174.3727 319.760261,174.3117 C319.806261,174.2497 319.862261,174.1887 319.929261,174.1277 C320.614261,173.2217 321.480261,172.5227 322.527261,172.0307 C323.575261,171.5377 324.694261,171.3217 325.884261,171.3797 C326.883261,171.4297 327.814261,171.6677 328.678261,172.0957 C329.541261,172.5237 330.281261,173.0787 330.897261,173.7597 C331.513261,174.4427 331.985261,175.2287 332.313261,176.1217 C332.642261,177.0137 332.782261,177.9497 332.733261,178.9297 C332.701261,179.5897 332.592261,180.2207 332.407261,180.8207 C332.222261,181.4187 331.963261,181.9667 331.629261,182.4627 C331.627261,182.4847 331.626261,182.5057 331.626261,182.5277 C331.603261,182.5467 331.581261,182.5677 331.559261,182.5877 C330.980261,183.4777 330.229261,184.2047 329.303261,184.7667 C328.378261,185.3297 327.357261,185.6677 326.241261,185.7837 L326.837261,173.7987 C326.209261,173.5537 325.576261,173.3937 324.938261,173.3197 C324.302261,173.2457 323.697261,173.2627 323.126261,173.3737 C322.554261,173.4837 322.026261,173.6817 321.542261,173.9677 C321.058261,174.2527 320.655261,174.6227 320.334261,175.0777 C320.310261,175.1187 320.287261,175.1607 320.263261,175.2017 C320.173261,175.3037 320.091261,175.4497 320.018261,175.6377 C319.539261,176.6607 319.515261,177.7807 319.946261,178.9987 C320.187261,179.7367 320.564261,180.4177 321.078261,181.0407 C321.592261,181.6647 322.210261,182.2187 322.934261,182.7037" id="Fill-2" fill="#000000"></path>
                        <path d="M319.639961,205.6447 C320.290961,206.2067 320.983961,206.6397 321.717961,206.9457 C322.450961,207.2517 323.171961,207.4297 323.878961,207.4817 C324.585961,207.5327 325.253961,207.4507 325.882961,207.2367 C326.511961,207.0217 327.056961,206.6767 327.518961,206.2027 C327.522961,206.1807 327.530961,206.1657 327.543961,206.1587 C327.556961,206.1497 327.574961,206.1367 327.599961,206.1207 C327.603961,206.0987 327.611961,206.0837 327.624961,206.0767 C327.637961,206.0677 327.645961,206.0527 327.649961,206.0317 L327.911961,205.6917 C328.039961,205.4777 328.158961,205.2347 328.265961,204.9617 C328.372961,204.6897 328.453961,204.4167 328.506961,204.1447 C328.624961,203.5377 328.617961,202.9057 328.484961,202.2497 C328.350961,201.4847 328.074961,200.7567 327.654961,200.0667 C327.235961,199.3757 326.699961,198.7497 326.048961,198.1887 C325.396961,197.6267 324.709961,197.1947 323.986961,196.8907 C323.263961,196.5857 322.548961,196.4087 321.840961,196.3577 C321.133961,196.3067 320.460961,196.3877 319.821961,196.5997 C319.181961,196.8127 318.641961,197.1577 318.201961,197.6367 C318.150961,197.6707 318.123961,197.6987 318.119961,197.7187 C318.011961,197.8287 317.896961,197.9687 317.776961,198.1417 C317.494961,198.5857 317.298961,199.1137 317.191961,199.7227 C317.083961,200.3327 317.097961,200.9547 317.235961,201.5897 C317.372961,202.3327 317.650961,203.0557 318.067961,203.7567 C318.485961,204.4577 319.009961,205.0857 319.639961,205.6447 L319.639961,205.6447 Z M328.794961,210.5257 L314.252961,207.6917 L314.625961,205.7757 L317.138961,206.2657 C316.511961,205.4687 316.072961,204.5687 315.823961,203.5637 C315.573961,202.5587 315.552961,201.5227 315.761961,200.4547 C315.965961,199.4077 316.376961,198.4657 316.995961,197.6307 C317.033961,197.5507 317.079961,197.4787 317.136961,197.4137 C317.192961,197.3477 317.246961,197.2887 317.301961,197.2337 C317.363961,197.1367 317.446961,197.0447 317.551961,196.9567 C317.638961,196.8427 317.748961,196.7227 317.882961,196.5967 C318.706961,195.8237 319.667961,195.2657 320.766961,194.9257 C321.865961,194.5857 323.011961,194.5327 324.205961,194.7647 C325.189961,194.9567 326.073961,195.3247 326.859961,195.8697 C327.643961,196.4137 328.293961,197.0667 328.807961,197.8307 C329.322961,198.5927 329.683961,199.4407 329.893961,200.3727 C330.103961,201.3047 330.114961,202.2517 329.926961,203.2147 C329.799961,203.8647 329.598961,204.4657 329.322961,205.0217 C329.046961,205.5757 328.715961,206.0867 328.329961,206.5557 C328.326961,206.5767 328.321961,206.5977 328.317961,206.6187 C328.292961,206.6347 328.267961,206.6527 328.242961,206.6687 C327.743961,207.2237 327.161961,207.6977 326.498961,208.0897 L329.168961,208.6107 L328.794961,210.5257 Z" id="Fill-4" fill="#000000"></path>
                        <path d="M325.952861,218.7755 C325.935861,219.8375 325.681861,220.8505 325.191861,221.8205 C324.701861,222.7895 324.014861,223.6125 323.130861,224.2905 L322.211861,222.6265 C323.044861,222.2005 323.712861,221.6545 324.215861,220.9895 C324.718861,220.3235 324.986861,219.5855 325.020861,218.7735 C325.026861,218.7535 325.038861,218.7125 325.056861,218.6505 C325.035861,218.6445 325.028861,218.6305 325.034861,218.6115 C325.040861,218.5905 325.046861,218.5695 325.052861,218.5495 L325.035861,218.1455 C324.997861,217.8895 324.936861,217.6385 324.852861,217.3925 C324.760861,216.9445 324.525861,216.4885 324.148861,216.0245 C323.821861,215.6195 323.342861,215.1975 322.714861,214.7615 C322.084861,214.3245 321.208861,213.8995 320.084861,213.4875 L313.165861,211.4925 L313.706861,209.6165 L327.942861,213.7215 L327.402861,215.5965 L324.973861,214.8965 C325.008861,214.9285 325.039861,214.9705 325.069861,215.0245 C325.696861,216.1595 325.993861,217.3665 325.957861,218.6435 C325.977861,218.6495 325.985861,218.6635 325.979861,218.6835 C325.967861,218.7245 325.958861,218.7545 325.952861,218.7755" id="Fill-6" fill="#000000"></path>
                        <path d="M318.738561,226.2628 C318.674561,226.1928 318.607561,226.1168 318.536561,226.0328 C318.467561,225.9498 318.389561,225.8678 318.305561,225.7908 L314.862561,234.8888 C315.597561,235.0988 316.305561,235.1568 316.987561,235.0608 C317.668561,234.9648 318.288561,234.7148 318.849561,234.3118 C318.864561,234.2718 318.899561,234.2398 318.953561,234.2138 C318.961561,234.1948 318.971561,234.1808 318.985561,234.1748 C318.999561,234.1678 319.009561,234.1558 319.017561,234.1358 L319.320561,233.8738 C319.656561,233.5228 319.927561,233.0768 320.131561,232.5378 C320.350561,231.9598 320.450561,231.3358 320.432561,230.6678 C320.418561,229.0888 319.854561,227.6198 318.738561,226.2628 M311.191561,232.4738 C311.422561,232.7658 311.695561,233.0398 312.009561,233.2958 L311.170561,235.5108 C310.445561,235.0758 309.824561,234.5338 309.306561,233.8808 C308.789561,233.2288 308.398561,232.5158 308.132561,231.7428 C307.865561,230.9688 307.733561,230.1598 307.733561,229.3168 C307.733561,228.4728 307.891561,227.6318 308.209561,226.7938 C308.586561,225.7958 309.150561,224.9378 309.901561,224.2178 C309.970561,224.1528 310.033561,224.0908 310.090561,224.0338 C310.146561,223.9738 310.205561,223.9228 310.268561,223.8778 C310.331561,223.8328 310.382561,223.7888 310.420561,223.7468 C310.458561,223.7038 310.506561,223.6708 310.561561,223.6468 C310.623561,223.6018 310.685561,223.5568 310.748561,223.5118 C310.810561,223.4668 310.883561,223.4258 310.966561,223.3888 C311.895561,222.7378 312.934561,222.3378 314.082561,222.1908 C315.230561,222.0438 316.362561,222.1818 317.476561,222.6038 C318.411561,222.9568 319.225561,223.4708 319.915561,224.1428 C320.605561,224.8148 321.139561,225.5698 321.515561,226.4078 C321.892561,227.2458 322.100561,228.1398 322.139561,229.0898 C322.177561,230.0398 322.024561,230.9738 321.676561,231.8918 C321.442561,232.5098 321.145561,233.0758 320.785561,233.5898 C320.425561,234.1038 320.009561,234.5458 319.539561,234.9148 C319.532561,234.9348 319.524561,234.9548 319.517561,234.9748 C319.489561,234.9868 319.461561,234.9988 319.434561,235.0118 C318.611561,235.6808 317.672561,236.1418 316.619561,236.3928 C315.566561,236.6448 314.490561,236.6538 313.392561,236.4198 L317.640561,225.1978 C317.117561,224.7718 316.564561,224.4248 315.981561,224.1588 C315.398561,223.8918 314.817561,223.7228 314.239561,223.6538 C313.661561,223.5818 313.098561,223.6088 312.550561,223.7328 C312.001561,223.8548 311.504561,224.0828 311.059561,224.4168 C311.024561,224.4488 310.988561,224.4808 310.953561,224.5138 C310.836561,224.5828 310.713561,224.6968 310.586561,224.8538 C309.816561,225.6798 309.449561,226.7388 309.486561,228.0298 C309.488561,228.8058 309.638561,229.5708 309.935561,230.3218 C310.233561,231.0728 310.651561,231.7898 311.191561,232.4738" id="Fill-8" fill="#000000"></path>
                        <path d="M316.778561,257.0714 C316.352561,257.8834 315.836561,258.5094 315.231561,258.9514 C314.625561,259.3924 313.968561,259.6914 313.259561,259.8494 C313.202561,259.3614 313.125561,258.9124 313.028561,258.5004 C313.621561,258.4254 314.169561,258.2434 314.671561,257.9524 C315.173561,257.6614 315.592561,257.1954 315.930561,256.5534 C316.346561,255.7594 316.471561,254.9944 316.304561,254.2574 C316.137561,253.5184 315.820561,252.8394 315.350561,252.2184 C314.881561,251.5984 314.328561,251.0554 313.694561,250.5904 C313.059561,250.1244 312.477561,249.7524 311.948561,249.4744 L311.835561,249.4154 L309.618561,253.6364 L308.938561,253.2794 L311.155561,249.0584 C310.777561,248.8594 310.338561,248.6294 309.838561,248.3664 C309.337561,248.1034 308.808561,247.8264 308.251561,247.5334 C307.694561,247.2414 307.117561,246.9384 306.523561,246.6264 C305.927561,246.3134 305.356561,246.0134 304.808561,245.7254 C303.486561,245.0314 302.112561,244.3224 300.686561,243.5964 L301.578561,241.8974 L312.032561,247.3864 L312.642561,246.2254 L313.322561,246.5824 L312.697561,247.7724 L313.009561,247.9354 C313.538561,248.2134 314.135561,248.6474 314.801561,249.2384 C315.467561,249.8284 316.040561,250.5274 316.520561,251.3344 C317.000561,252.1394 317.302561,253.0334 317.426561,254.0134 C317.549561,254.9944 317.334561,256.0134 316.778561,257.0714" id="Fill-10" fill="#000000"></path>
                        <path d="M303.724861,267.6056 L291.158861,259.7556 L292.208861,258.0736 L294.326861,259.3956 C294.174861,258.8736 294.093861,258.3196 294.081861,257.7336 C294.065861,257.1956 294.115861,256.6236 294.229861,256.0156 C294.345861,255.4086 294.600861,254.7886 294.995861,254.1556 C295.391861,253.5216 295.910861,252.9536 296.552861,252.4486 C297.194861,251.9436 297.913861,251.5686 298.707861,251.3236 C299.502861,251.0776 300.350861,250.9976 301.253861,251.0836 C302.155861,251.1686 303.068861,251.5006 303.991861,252.0766 C304.768861,252.5626 305.558861,253.0486 306.360861,253.5386 C307.162861,254.0256 307.889861,254.4736 308.540861,254.8796 C309.329861,255.3476 310.092861,255.7986 310.827861,256.2336 L309.827861,257.8346 L304.045861,254.2236 C303.286861,253.7496 302.518861,253.3766 301.744861,253.1066 C300.969861,252.8356 300.218861,252.7006 299.490861,252.6986 C298.761861,252.6966 298.078861,252.8546 297.439861,253.1716 C296.801861,253.4906 296.250861,254.0196 295.786861,254.7616 C295.379861,255.4136 295.165861,256.0786 295.144861,256.7566 C295.122861,257.4346 295.263861,258.1066 295.563861,258.7726 C295.865861,259.4386 296.323861,260.0836 296.939861,260.7086 C297.556861,261.3316 298.298861,261.9156 299.167861,262.4576 L304.758861,265.9496 L303.724861,267.6056 Z" id="Fill-12" fill="#000000"></path>
                        <polygon id="Fill-14" fill="#000000" points="289.842561 261.4171 306.481561 273.3031 305.346561 274.8911 288.707561 263.0061"></polygon>
                        <polygon id="Fill-16" fill="#000000" points="287.330361 264.882 303.636361 277.22 302.458361 278.777 286.152361 266.439"></polygon>
                        <polygon id="Fill-18" fill="#000000" points="287.979261 287.4132 276.834261 267.1312 277.622261 266.2052 280.756261 271.8542 296.875261 276.9582 295.320261 278.7852 282.107261 274.2662 288.912261 286.3162"></polygon>
                        <path d="M266.002661,294.4757 C266.071661,294.8427 266.184661,295.2267 266.342661,295.6287 L264.571661,297.2017 C264.130661,296.4807 263.832661,295.7107 263.677661,294.8937 C263.521661,294.0757 263.505661,293.2617 263.628661,292.4547 C263.752661,291.6447 264.010661,290.8667 264.401661,290.1197 C264.794661,289.3717 265.316661,288.7077 265.970661,288.1267 C266.784661,287.4047 267.690661,286.8987 268.689661,286.6097 C268.797661,286.5707 268.958661,286.5277 269.172661,286.4797 C269.340661,286.4437 269.462661,286.4207 269.539661,286.4107 C269.677661,286.3727 269.836661,286.3597 270.017661,286.3707 C271.143661,286.2237 272.248661,286.3527 273.333661,286.7557 C274.419661,287.1587 275.364661,287.8137 276.169661,288.7207 C276.819661,289.4527 277.294661,290.2767 277.594661,291.1917 C277.893661,292.1077 278.016661,293.0237 277.960661,293.9417 C277.904661,294.8587 277.674661,295.7467 277.267661,296.6067 C276.860661,297.4657 276.282661,298.2287 275.532661,298.8947 C274.575661,299.7447 273.484661,300.2987 272.260661,300.5587 C272.245661,300.5737 272.229661,300.5867 272.212661,300.6017 C272.183661,300.5997 272.152661,300.5977 272.122661,300.5957 C271.082661,300.8057 270.037661,300.7787 268.988661,300.5117 C267.938661,300.2467 266.988661,299.7627 266.138661,299.0627 L267.550661,297.8087 C268.143661,298.5087 268.818661,299.0367 269.575661,299.3907 C270.333661,299.7457 271.116661,299.8487 271.926661,299.7007 C271.956661,299.7027 272.025661,299.6837 272.133661,299.6447 C272.117661,299.6587 272.102661,299.6647 272.086661,299.6647 C272.071661,299.6627 272.056661,299.6697 272.040661,299.6847 L271.971661,299.7037 L272.040661,299.6847 C272.056661,299.6697 272.071661,299.6627 272.086661,299.6647 C272.102661,299.6647 272.117661,299.6587 272.133661,299.6447 L272.524661,299.5547 C273.002661,299.3867 273.449661,299.1187 273.863661,298.7497 C274.310661,298.3537 274.688661,297.8467 274.996661,297.2307 C275.714661,295.8227 275.891661,294.2527 275.524661,292.5247 C275.362661,291.6987 275.082661,290.9417 274.685661,290.2527 C274.287661,289.5647 273.823661,288.9857 273.292661,288.5157 C272.761661,288.0457 272.180661,287.7047 271.550661,287.4947 C270.920661,287.2837 270.278661,287.2257 269.622661,287.3237 L269.508661,287.3397 C269.370661,287.3767 269.200661,287.4267 269.000661,287.4907 C267.936661,287.8657 267.111661,288.6407 266.528661,289.8147 C266.185661,290.4897 265.972661,291.2287 265.886661,292.0327 C265.801661,292.8347 265.839661,293.6497 266.002661,294.4757" id="Fill-20" fill="#000000"></path>
                        <path d="M253.555961,304.0597 C253.661961,304.9317 253.876961,305.7367 254.201961,306.4767 C254.527961,307.2147 254.941961,307.8497 255.445961,308.3807 C255.949961,308.9117 256.507961,309.3167 257.119961,309.5977 C257.731961,309.8777 258.376961,309.9967 259.056961,309.9527 C259.103961,309.9437 259.174961,309.9317 259.268961,309.9167 L259.691961,309.8467 C260.197961,309.7437 260.674961,309.5297 261.122961,309.2047 C261.623961,308.8397 262.060961,308.3517 262.432961,307.7397 C263.290961,306.3787 263.631961,304.8147 263.454961,303.0447 C263.348961,302.1717 263.133961,301.3667 262.807961,300.6277 C262.482961,299.8877 262.075961,299.2547 261.586961,298.7267 C261.097961,298.1977 260.539961,297.7917 259.912961,297.5097 C259.285961,297.2257 258.638961,297.1157 257.972961,297.1777 L257.838961,297.1567 C257.696961,297.1797 257.523961,297.2127 257.318961,297.2567 C256.191961,297.5207 255.278961,298.2237 254.576961,299.3647 C254.153961,300.0147 253.857961,300.7437 253.691961,301.5487 C253.524961,302.3547 253.479961,303.1917 253.555961,304.0597 M259.182961,310.8887 C257.926961,311.0087 256.704961,310.8147 255.517961,310.3057 C254.330961,309.7957 253.336961,308.9887 252.534961,307.8837 C251.945961,307.0717 251.548961,306.1877 251.341961,305.2307 C251.135961,304.2737 251.101961,303.3297 251.242961,302.3967 C251.383961,301.4637 251.702961,300.5807 252.202961,299.7437 C252.702961,298.9067 253.366961,298.1867 254.195961,297.5847 C255.076961,296.9467 256.051961,296.5287 257.120961,296.3307 C257.214961,296.3157 257.379961,296.2887 257.614961,296.2487 C257.785961,296.2297 257.909961,296.2187 257.985961,296.2157 C258.110961,296.2057 258.263961,296.1987 258.446961,296.1977 C259.623961,296.1847 260.740961,296.4337 261.795961,296.9437 C262.850961,297.4537 263.740961,298.2077 264.465961,299.2067 C265.065961,300.0347 265.472961,300.9217 265.686961,301.8717 C265.901961,302.8207 265.930961,303.7597 265.773961,304.6887 C265.617961,305.6177 265.288961,306.4997 264.788961,307.3357 C264.288961,308.1717 263.633961,308.8847 262.821961,309.4737 C261.750961,310.2497 260.584961,310.7137 259.323961,310.8657 C259.306961,310.8767 259.291961,310.8747 259.279961,310.8577 C259.244961,310.8827 259.212961,310.8927 259.182961,310.8887" id="Fill-22" fill="#000000"></path>
                        <path d="M239.368961,323.6466 C238.431961,324.1556 237.518961,324.3966 236.629961,324.3696 C235.741961,324.3426 234.908961,324.1266 234.130961,323.7236 C233.353961,323.3206 232.646961,322.7696 232.012961,322.0706 C231.377961,321.3716 230.841961,320.6186 230.403961,319.8126 L227.120961,313.7666 L228.582961,312.9726 C228.949961,313.6486 229.317961,314.3256 229.684961,315.0016 C230.021961,315.6226 230.365961,316.2556 230.718961,316.9046 C231.070961,317.5526 231.404961,318.1676 231.720961,318.7506 C232.026961,319.3146 232.425961,319.9246 232.916961,320.5836 C233.407961,321.2416 233.966961,321.8006 234.593961,322.2636 C235.221961,322.7256 235.902961,323.0316 236.638961,323.1786 C237.374961,323.3276 238.145961,323.1816 238.951961,322.7446 C239.757961,322.3066 240.294961,321.7416 240.561961,321.0486 C240.828961,320.3556 240.938961,319.6206 240.892961,318.8426 C240.846961,318.0646 240.688961,317.3046 240.419961,316.5626 C240.149961,315.8216 239.867961,315.1776 239.571961,314.6326 C239.285961,314.1066 238.958961,313.5046 238.591961,312.8296 C238.223961,312.1526 237.877961,311.5136 237.550961,310.9126 C237.162961,310.1986 236.769961,309.4746 236.371961,308.7426 L237.890961,307.9176 C238.239961,308.6036 238.597961,309.2856 238.964961,309.9616 C239.301961,310.5826 239.645961,311.2156 239.997961,311.8646 C240.349961,312.5126 240.683961,313.1276 241.000961,313.7106 C241.081961,313.8616 241.170961,314.0126 241.266961,314.1676 C241.363961,314.3226 241.472961,314.4886 241.592961,314.6676 C241.955961,315.1996 242.370961,315.7286 242.838961,316.2526 C243.306961,316.7786 243.827961,317.2116 244.404961,317.5566 C244.981961,317.8996 245.591961,318.1036 246.235961,318.1676 C246.878961,318.2316 247.549961,318.0756 248.245961,317.6976 C248.997961,317.2886 249.521961,316.7606 249.816961,316.1136 C250.110961,315.4666 250.250961,314.7826 250.236961,314.0606 C250.221961,313.3376 250.099961,312.6206 249.869961,311.9056 C249.639961,311.1906 249.386961,310.5556 249.108961,310.0006 C249.057961,309.9066 248.986961,309.7746 248.894961,309.6066 C248.598961,309.0606 248.266961,308.4506 247.899961,307.7736 C247.532961,307.0976 247.184961,306.4586 246.858961,305.8576 C246.470961,305.1426 246.077961,304.4196 245.680961,303.6866 L247.395961,302.7546 L254.466961,315.7756 L252.750961,316.7066 L251.531961,314.5286 C251.405961,315.3256 251.123961,316.0796 250.684961,316.7916 C250.245961,317.5026 249.567961,318.1076 248.648961,318.6066 C247.486961,319.2386 246.367961,319.4576 245.291961,319.2646 C244.215961,319.0716 243.227961,318.6376 242.326961,317.9616 C242.362961,318.4756 242.337961,318.9996 242.250961,319.5326 C242.163961,320.0656 242.006961,320.5816 241.780961,321.0806 C241.554961,321.5796 241.245961,322.0506 240.854961,322.4946 C240.463961,322.9366 239.968961,323.3206 239.368961,323.6466" id="Fill-24" fill="#000000"></path>
                        <path d="M214.548161,333.6378 C213.541161,333.9898 212.601161,334.0788 211.728161,333.9088 C210.856161,333.7398 210.069161,333.3918 209.366161,332.8678 C208.664161,332.3448 208.056161,331.6868 207.543161,330.8948 C207.029161,330.1018 206.622161,329.2728 206.320161,328.4068 L204.055161,321.9098 L205.627161,321.3628 C205.880161,322.0888 206.133161,322.8158 206.387161,323.5428 C206.619161,324.2088 206.857161,324.8908 207.100161,325.5868 C207.342161,326.2838 207.573161,326.9458 207.791161,327.5718 C208.002161,328.1768 208.297161,328.8438 208.675161,329.5738 C209.053161,330.3018 209.515161,330.9448 210.059161,331.5018 C210.604161,332.0598 211.227161,332.4708 211.929161,332.7358 C212.631161,332.9998 213.416161,332.9818 214.282161,332.6798 C215.149161,332.3778 215.769161,331.9068 216.145161,331.2668 C216.520161,330.6258 216.748161,329.9178 216.828161,329.1438 C216.908161,328.3668 216.875161,327.5918 216.729161,326.8168 C216.583161,326.0408 216.407161,325.3608 216.203161,324.7758 C216.006161,324.2098 215.781161,323.5638 215.528161,322.8368 C215.275161,322.1098 215.035161,321.4228 214.810161,320.7778 C214.542161,320.0098 214.272161,319.2328 213.997161,318.4448 L215.629161,317.8758 C215.862161,318.6098 216.105161,319.3398 216.359161,320.0678 C216.591161,320.7338 216.828161,321.4148 217.071161,322.1118 C217.314161,322.8088 217.545161,323.4698 217.763161,324.0958 C217.819161,324.2568 217.882161,324.4218 217.952161,324.5898 C218.022161,324.7578 218.102161,324.9398 218.193161,325.1348 C218.465161,325.7188 218.789161,326.3088 219.166161,326.9018 C219.543161,327.4948 219.988161,328.0078 220.501161,328.4408 C221.015161,328.8718 221.585161,329.1718 222.209161,329.3398 C222.834161,329.5068 223.521161,329.4598 224.269161,329.1998 C225.078161,328.9168 225.679161,328.4808 226.075161,327.8908 C226.470161,327.2998 226.718161,326.6468 226.820161,325.9318 C226.923161,325.2168 226.919161,324.4888 226.807161,323.7448 C226.695161,323.0028 226.548161,322.3358 226.363161,321.7428 C226.328161,321.6428 226.279161,321.5008 226.216161,321.3198 C226.012161,320.7338 225.783161,320.0768 225.529161,319.3508 C225.276161,318.6228 225.037161,317.9368 224.812161,317.2908 C224.544161,316.5238 224.274161,315.7458 223.999161,314.9588 L225.842161,314.3168 L230.718161,328.3068 L228.875161,328.9498 L228.024161,326.6028 C227.771161,327.3678 227.371161,328.0678 226.822161,328.6998 C226.275161,329.3298 225.507161,329.8188 224.520161,330.1618 C223.271161,330.5978 222.131161,330.6328 221.101161,330.2698 C220.070161,329.9058 219.165161,329.3178 218.384161,328.5048 C218.338161,329.0188 218.229161,329.5308 218.056161,330.0428 C217.885161,330.5548 217.647161,331.0378 217.342161,331.4948 C217.039161,331.9508 216.658161,332.3658 216.201161,332.7408 C215.744161,333.1138 215.193161,333.4128 214.548161,333.6378" id="Fill-26" fill="#000000"></path>
                        <path d="M205.443161,339.1095 C205.796161,339.0235 206.120161,339.0715 206.416161,339.2525 C206.713161,339.4315 206.901161,339.6875 206.982161,340.0195 C207.068161,340.3725 207.020161,340.6965 206.839161,340.9935 C206.659161,341.2895 206.393161,341.4805 206.041161,341.5665 C205.709161,341.6465 205.395161,341.5965 205.098161,341.4175 C204.802161,341.2365 204.611161,340.9695 204.525161,340.6175 C204.444161,340.2855 204.495161,339.9715 204.675161,339.6755 C204.855161,339.3795 205.111161,339.1905 205.443161,339.1095 L205.443161,339.1095 Z M202.306161,321.8905 L205.810161,336.2875 L203.851161,336.7635 L200.348161,322.3685 L202.306161,321.8905 Z" id="Fill-28" fill="#000000"></path>
                        <path d="M188.719061,327.3644 C188.524061,327.2484 188.325061,327.1384 188.121061,327.0354 C187.918061,326.9314 187.721061,326.8334 187.530061,326.7384 C187.890061,326.1064 188.372061,325.5734 188.974061,325.1364 C189.577061,324.6994 190.319061,324.3994 191.199061,324.2364 C192.395061,324.0154 193.453061,324.1064 194.375061,324.5114 C195.296061,324.9154 196.090061,325.4844 196.757061,326.2184 C197.425061,326.9514 197.958061,327.7864 198.359061,328.7204 C198.760061,329.6554 199.040061,330.5524 199.199061,331.4134 L200.078061,336.1644 L201.620061,335.8794 L201.760061,336.6344 L200.218061,336.9194 L201.371061,343.1494 L199.325061,343.5284 L198.173061,337.2984 L193.925061,338.0844 L193.785061,337.3284 L198.033061,336.5434 C197.959061,336.1434 197.872061,335.6724 197.771061,335.1274 C197.670061,334.5814 197.576061,334.0454 197.490061,333.5184 C197.403061,332.9924 197.319061,332.5094 197.238061,332.0684 C197.156061,331.6284 197.095061,331.3024 197.057061,331.0934 C196.948061,330.5064 196.759061,329.8354 196.490061,329.0834 C196.220061,328.3304 195.865061,327.6414 195.424061,327.0184 C194.983061,326.3944 194.435061,325.8934 193.780061,325.5164 C193.124061,325.1384 192.345061,325.0334 191.443061,325.2004 C190.751061,325.3284 190.185061,325.5844 189.747061,325.9694 C189.308061,326.3544 188.966061,326.8194 188.719061,327.3644" id="Fill-30" fill="#000000"></path>
                        <path d="M176.447061,328.6896 C176.262061,328.5576 176.073061,328.4316 175.879061,328.3126 C175.684061,328.1926 175.496061,328.0776 175.313061,327.9666 C175.725061,327.3686 176.248061,326.8766 176.885061,326.4906 C177.522061,326.1046 178.285061,325.8666 179.177061,325.7776 C180.387061,325.6556 181.434061,325.8336 182.319061,326.3126 C183.203061,326.7916 183.947061,327.4236 184.552061,328.2106 C185.157061,328.9966 185.620061,329.8726 185.942061,330.8356 C186.264061,331.8006 186.469061,332.7176 186.557061,333.5886 L187.042061,338.3966 L188.602061,338.2396 L188.678061,339.0026 L187.118061,339.1606 L187.754061,345.4646 L185.684061,345.6726 L185.049061,339.3696 L180.751061,339.8016 L180.674061,339.0386 L184.972061,338.6046 C184.931061,338.2016 184.883061,337.7236 184.828061,337.1716 C184.772061,336.6206 184.723061,336.0786 184.680061,335.5466 C184.637061,335.0146 184.593061,334.5266 184.549061,334.0806 C184.504061,333.6346 184.470061,333.3056 184.449061,333.0936 C184.389061,332.4996 184.256061,331.8156 184.050061,331.0436 C183.843061,330.2706 183.546061,329.5546 183.158061,328.8976 C182.770061,328.2396 182.265061,327.6956 181.643061,327.2656 C181.020061,326.8346 180.253061,326.6656 179.340061,326.7576 C178.640061,326.8286 178.055061,327.0376 177.586061,327.3846 C177.117061,327.7316 176.738061,328.1666 176.447061,328.6896" id="Fill-32" fill="#000000"></path>
                        <path d="M172.796161,335.8947 C172.838161,335.8087 172.885161,335.7177 172.937161,335.6227 C172.989161,335.5267 173.035161,335.4257 173.076161,335.3197 L163.349161,335.4467 C163.423161,336.2067 163.629161,336.8877 163.968161,337.4867 C164.307161,338.0847 164.766161,338.5717 165.347161,338.9457 C165.390161,338.9447 165.433161,338.9647 165.476161,339.0067 C165.498161,339.0067 165.514161,339.0117 165.525161,339.0217 C165.535161,339.0327 165.551161,339.0377 165.572161,339.0377 L165.927161,339.2227 C166.378161,339.4077 166.891161,339.4967 167.466161,339.4897 C168.086161,339.4807 168.702161,339.3457 169.317161,339.0827 C170.782161,338.4927 171.942161,337.4297 172.796161,335.8947 M164.253161,331.1467 C164.065161,331.4687 163.910161,331.8227 163.787161,332.2077 L161.419161,332.2397 C161.558161,331.4057 161.836161,330.6277 162.253161,329.9087 C162.670161,329.1877 163.190161,328.5627 163.812161,328.0317 C164.435161,327.4997 165.139161,327.0817 165.924161,326.7717 C166.709161,326.4627 167.550161,326.3027 168.446161,326.2907 C169.513161,326.2767 170.518161,326.4877 171.462161,326.9217 C171.548161,326.9627 171.629161,326.9987 171.704161,327.0307 C171.779161,327.0617 171.849161,327.0977 171.913161,327.1397 C171.978161,327.1807 172.037161,327.2117 172.090161,327.2327 C172.144161,327.2527 172.192161,327.2847 172.235161,327.3277 C172.300161,327.3687 172.365161,327.4107 172.429161,327.4527 C172.494161,327.4937 172.559161,327.5457 172.623161,327.6097 C173.570161,328.2357 174.322161,329.0557 174.880161,330.0707 C175.437161,331.0847 175.724161,332.1877 175.739161,333.3797 C175.753161,334.3797 175.573161,335.3247 175.200161,336.2127 C174.828161,337.1017 174.321161,337.8737 173.679161,338.5327 C173.037161,339.1897 172.281161,339.7097 171.411161,340.0937 C170.541161,340.4787 169.616161,340.6767 168.634161,340.6897 C167.973161,340.6987 167.338161,340.6287 166.728161,340.4827 C166.118161,340.3357 165.555161,340.1117 165.039161,339.8087 C165.018161,339.8087 164.996161,339.8097 164.975161,339.8097 C164.953161,339.7887 164.932161,339.7667 164.910161,339.7467 C163.986161,339.2247 163.213161,338.5207 162.594161,337.6327 C161.974161,336.7447 161.572161,335.7477 161.386161,334.6397 L173.385161,334.4827 C173.590161,333.8397 173.710161,333.1987 173.744161,332.5577 C173.779161,331.9167 173.723161,331.3157 173.577161,330.7517 C173.431161,330.1887 173.200161,329.6737 172.884161,329.2087 C172.569161,328.7437 172.175161,328.3647 171.701161,328.0727 C171.659161,328.0517 171.616161,328.0307 171.572161,328.0097 C171.465161,327.9257 171.315161,327.8537 171.122161,327.7917 C170.071161,327.3787 168.952161,327.4247 167.763161,327.9317 C167.042161,328.2187 166.386161,328.6377 165.796161,329.1897 C165.206161,329.7417 164.691161,330.3937 164.253161,331.1467" id="Fill-34" fill="#000000"></path>
                        <path d="M148.926561,330.2179 C148.435561,330.9009 148.074561,331.6229 147.844561,332.3839 C147.614561,333.1449 147.510561,333.8799 147.530561,334.5889 C147.551561,335.2979 147.700561,335.9539 147.977561,336.5579 C148.254561,337.1609 148.642561,337.6569 149.142561,338.0459 C149.202561,338.0939 149.242561,338.1299 149.261561,338.1539 C149.282561,338.1549 149.298561,338.1609 149.307561,338.1729 C149.317561,338.1849 149.333561,338.1919 149.354561,338.1939 L149.687561,338.4169 C150.137561,338.6509 150.627561,338.7919 151.158561,338.8409 C151.775561,338.8969 152.413561,338.8269 153.073561,338.6299 C153.801561,338.3969 154.488561,338.0409 155.131561,337.5659 C155.775561,337.0879 156.343561,336.4969 156.835561,335.7929 C157.326561,335.1099 157.687561,334.3869 157.917561,333.6259 C158.147561,332.8649 158.252561,332.1309 158.231561,331.4219 C158.211561,330.7129 158.062561,330.0569 157.784561,329.4529 C157.508561,328.8499 157.109561,328.3519 156.588561,327.9619 C156.569561,327.9389 156.554561,327.9209 156.544561,327.9089 C156.534561,327.8979 156.519561,327.8919 156.498561,327.8899 C156.397561,327.8159 156.255561,327.7279 156.072561,327.6249 C155.070561,327.1059 153.941561,327.0339 152.685561,327.4119 C151.961561,327.6029 151.277561,327.9429 150.632561,328.4299 C149.988561,328.9169 149.419561,329.5129 148.926561,330.2179 L148.926561,330.2179 Z M144.387561,345.4189 L146.249561,325.0569 L148.193561,325.2349 L147.963561,327.7519 C148.690561,327.0679 149.534561,326.5559 150.497561,326.2159 C151.460561,325.8749 152.473561,325.7539 153.535561,325.8509 C154.597561,325.9479 155.586561,326.2639 156.501561,326.7969 C156.623561,326.8719 156.765561,326.9599 156.927561,327.0609 C157.049561,327.1369 157.138561,327.2089 157.196561,327.2789 C157.297561,327.3519 157.427561,327.4489 157.587561,327.5719 C158.441561,328.3129 159.092561,329.2139 159.541561,330.2729 C159.991561,331.3309 160.160561,332.4659 160.050561,333.6769 C159.960561,334.6539 159.684561,335.5609 159.222561,336.3969 C158.760561,337.2329 158.176561,337.9459 157.468561,338.5339 C156.761561,339.1219 155.955561,339.5629 155.050561,339.8559 C154.145561,340.1479 153.204561,340.2489 152.227561,340.1589 C151.568561,340.0999 150.948561,339.9619 150.368561,339.7479 C149.788561,339.5349 149.257561,339.2559 148.774561,338.9119 C148.753561,338.9099 148.733561,338.8969 148.713561,338.8739 C148.692561,338.8719 148.673561,338.8489 148.655561,338.8049 C148.032561,338.3629 147.510561,337.8539 147.092561,337.2799 L146.331561,345.5969 L144.387561,345.4189 Z" id="Fill-36" fill="#000000"></path>
                        <path d="M126.545661,323.5949 C126.414661,323.4099 126.276661,323.2299 126.132661,323.0519 C125.988661,322.8749 125.848661,322.7049 125.711661,322.5399 C126.296661,322.1099 126.953661,321.8179 127.681661,321.6619 C128.409661,321.5069 129.209661,321.5329 130.080661,321.7409 C131.263661,322.0239 132.193661,322.5359 132.871661,323.2799 C133.549661,324.0229 134.045661,324.8649 134.357661,325.8059 C134.670661,326.7469 134.820661,327.7259 134.807661,328.7419 C134.795661,329.7599 134.687661,330.6939 134.484661,331.5439 L133.362661,336.2439 L134.887661,336.6089 L134.709661,337.3559 L133.183661,336.9909 L131.712661,343.1539 L129.689661,342.6709 L131.160661,336.5079 L126.959661,335.5049 L127.137661,334.7579 L131.338661,335.7609 C131.433661,335.3659 131.545661,334.8999 131.673661,334.3609 C131.802661,333.8209 131.934661,333.2929 132.067661,332.7769 C132.202661,332.2609 132.321661,331.7839 132.425661,331.3489 C132.529661,330.9129 132.606661,330.5909 132.655661,330.3839 C132.794661,329.8029 132.893661,329.1139 132.952661,328.3169 C133.011661,327.5189 132.965661,326.7449 132.815661,325.9969 C132.665661,325.2479 132.366661,324.5689 131.920661,323.9569 C131.474661,323.3459 130.804661,322.9349 129.912661,322.7209 C129.227661,322.5579 128.607661,322.5629 128.049661,322.7379 C127.493661,322.9109 126.991661,323.1969 126.545661,323.5949" id="Fill-38" fill="#000000"></path>
                        <path d="M114.002261,321.9074 C113.354261,322.5004 112.824261,323.1434 112.412261,323.8394 C112.000261,324.5324 111.725261,325.2394 111.585261,325.9584 C111.447261,326.6764 111.441261,327.3654 111.569261,328.0274 C111.697261,328.6884 111.976261,329.2824 112.407261,329.8084 C112.441261,329.8434 112.492261,329.8924 112.559261,329.9614 L112.862261,330.2644 C113.240261,330.6154 113.691261,330.8794 114.217261,331.0544 C114.805261,331.2514 115.456261,331.3224 116.170261,331.2684 C117.776261,331.1764 119.247261,330.5434 120.584261,329.3704 C121.232261,328.7774 121.762261,328.1334 122.174261,327.4384 C122.586261,326.7444 122.865261,326.0444 123.011261,325.3404 C123.157261,324.6354 123.162261,323.9444 123.027261,323.2704 C122.894261,322.5954 122.607261,322.0054 122.169261,321.4994 L122.108261,321.3774 C122.007261,321.2754 121.879261,321.1544 121.724261,321.0124 C120.855261,320.2494 119.752261,319.9154 118.416261,320.0084 C117.640261,320.0414 116.876261,320.2234 116.123261,320.5574 C115.371261,320.8904 114.664261,321.3414 114.002261,321.9074 M111.719261,330.4564 C110.890261,329.5044 110.337261,328.3964 110.062261,327.1364 C109.787261,325.8744 109.865261,324.5954 110.297261,323.3014 C110.615261,322.3494 111.104261,321.5114 111.762261,320.7874 C112.420261,320.0624 113.169261,319.4864 114.010261,319.0584 C114.850261,318.6314 115.756261,318.3774 116.727261,318.2974 C117.699261,318.2174 118.670261,318.3394 119.641261,318.6634 C120.673261,319.0084 121.581261,319.5574 122.362261,320.3134 C122.430261,320.3814 122.548261,320.4994 122.716261,320.6674 C122.832261,320.7954 122.912261,320.8894 122.960261,320.9504 C123.041261,321.0454 123.135261,321.1664 123.243261,321.3144 C123.937261,322.2644 124.384261,323.3174 124.583261,324.4724 C124.782261,325.6274 124.685261,326.7904 124.294261,327.9614 C123.970261,328.9304 123.484261,329.7784 122.836261,330.5044 C122.189261,331.2304 121.442261,331.8004 120.595261,332.2134 C119.749261,332.6264 118.840261,332.8724 117.869261,332.9514 C116.898261,333.0304 115.937261,332.9114 114.985261,332.5944 C113.731261,332.1754 112.676261,331.4954 111.820261,330.5574 C111.800261,330.5514 111.793261,330.5364 111.799261,330.5164 C111.759261,330.5034 111.732261,330.4824 111.719261,330.4564" id="Fill-40" fill="#000000"></path>
                        <path d="M92.2487607,311.9376 C91.5367607,312.3846 90.9297607,312.9166 90.4277607,313.5346 C89.9277607,314.1516 89.5527607,314.7916 89.3037607,315.4566 C89.0547607,316.1206 88.9447607,316.7846 88.9727607,317.4486 C89.0007607,318.1116 89.1777607,318.7316 89.5017607,319.3096 C89.5307607,319.3476 89.5487607,319.3816 89.5577607,319.4106 L89.5997607,319.4686 L89.8527607,319.8156 C90.1617607,320.1926 90.5617607,320.5086 91.0537607,320.7646 C91.6027607,321.0496 92.2107607,321.2216 92.8777607,321.2796 C94.4597607,321.4276 95.9687607,321.0216 97.4057607,320.0606 C98.1377607,319.6236 98.7537607,319.0956 99.2547607,318.4786 C99.7557607,317.8616 100.130761,317.2206 100.378761,316.5566 C100.627761,315.8926 100.738761,315.2296 100.709761,314.5656 C100.682761,313.9026 100.500761,313.2916 100.165761,312.7326 L100.109761,312.6306 C100.017761,312.4866 99.9097607,312.3466 99.7877607,312.2106 C99.0847607,311.3416 98.0917607,310.8486 96.8047607,310.7346 C96.0517607,310.6556 95.2857607,310.7206 94.5047607,310.9276 C93.7237607,311.1356 92.9727607,311.4716 92.2487607,311.9376 M88.7357607,319.8126 C88.0837607,318.7536 87.7277607,317.6006 87.6657607,316.3546 C87.6037607,315.1086 87.8777607,313.8986 88.4867607,312.7246 C88.9497607,311.8336 89.5477607,311.0876 90.2817607,310.4836 C91.0167607,309.8786 91.8227607,309.4386 92.6997607,309.1616 C93.5777607,308.8826 94.4847607,308.7776 95.4237607,308.8446 C96.3627607,308.9126 97.2677607,309.1716 98.1387607,309.6246 C99.1037607,310.1256 99.8907607,310.7866 100.498761,311.6066 C100.591761,311.7036 100.689761,311.8376 100.791761,312.0116 C100.895761,312.1376 100.960761,312.2436 100.987761,312.3306 C101.062761,312.4166 101.137761,312.5516 101.210761,312.7346 C101.460761,313.2246 101.648761,313.7186 101.774761,314.2166 L102.924761,312.0016 L104.657761,312.9016 L95.2327607,331.0476 L93.5007607,330.1486 L97.3497607,322.7366 C96.4237607,323.0846 95.4567607,323.2356 94.4477607,323.1856 C93.4397607,323.1366 92.4627607,322.8666 91.5157607,322.3756 C90.9477607,322.0806 90.4367607,321.7216 89.9827607,321.2996 C89.5287607,320.8776 89.1317607,320.4166 88.7917607,319.9146 L88.7627607,319.8996 C88.7547607,319.8706 88.7457607,319.8416 88.7357607,319.8126" id="Fill-42" fill="#000000"></path>
                        <path d="M71.7141607,310.7345 L79.8721607,298.3665 L81.5281607,299.4595 L80.1541607,301.5425 C80.6801607,301.4035 81.2361607,301.3365 81.8211607,301.3385 C82.3601607,301.3365 82.9311607,301.3995 83.5351607,301.5305 C84.1391607,301.6605 84.7541607,301.9305 85.3771607,302.3415 C86.0001607,302.7535 86.5561607,303.2865 87.0441607,303.9405 C87.5331607,304.5945 87.8901607,305.3225 88.1151607,306.1235 C88.3411607,306.9235 88.4011607,307.7735 88.2921607,308.6735 C88.1841607,309.5735 87.8311607,310.4775 87.2321607,311.3855 C86.7271607,312.1515 86.2201607,312.9285 85.7121607,313.7185 C85.2041607,314.5075 84.7381607,315.2235 84.3161607,315.8645 C83.8291607,316.6415 83.3591607,317.3925 82.9061607,318.1165 L81.3311607,317.0775 L85.0841607,311.3875 C85.5771607,310.6395 85.9681607,309.8815 86.2571607,309.1145 C86.5471607,308.3465 86.7011607,307.5985 86.7211607,306.8715 C86.7411607,306.1425 86.6011607,305.4555 86.2981607,304.8095 C85.9961607,304.1635 85.4811607,303.5985 84.7501607,303.1175 C84.1091607,302.6945 83.4501607,302.4635 82.7721607,302.4255 C82.0951607,302.3875 81.4191607,302.5105 80.7461607,302.7955 C80.0731607,303.0805 79.4171607,303.5225 78.7771607,304.1235 C78.1391607,304.7235 77.5371607,305.4515 76.9731607,306.3055 L73.3431607,311.8085 L71.7141607,310.7345 Z" id="Fill-44" fill="#000000"></path>
                        <path d="M78.2580607,297.005 L69.3120607,308.816 L67.7050607,307.599 L76.6510607,295.788 L78.2580607,297.005 Z M66.8920607,310.315 C67.1810607,310.533 67.3500607,310.815 67.3970607,311.158 C67.4450607,311.502 67.3650607,311.81 67.1590607,312.082 C66.9400607,312.371 66.6590607,312.539 66.3150607,312.587 C65.9720607,312.634 65.6550607,312.549 65.3660607,312.329 C65.0940607,312.124 64.9340607,311.849 64.8860607,311.505 C64.8400607,311.161 64.9250607,310.845 65.1440607,310.556 C65.3500607,310.283 65.6250607,310.124 65.9680607,310.076 C66.3120607,310.029 66.6200607,310.109 66.8920607,310.315 L66.8920607,310.315 Z" id="Fill-46" fill="#000000"></path>
                        <polygon id="Fill-48" fill="#000000" points="74.8371607 294.3732 62.0251607 310.3102 60.5041607 309.0862 73.3161607 293.1492"></polygon>
                        <path d="M60.3317607,288.2199 C59.5267607,288.4649 58.8017607,288.8199 58.1567607,289.2829 C57.5117607,289.7479 56.9817607,290.2689 56.5677607,290.8439 C56.1537607,291.4199 55.8737607,292.0319 55.7267607,292.6799 C55.5797607,293.3269 55.5867607,293.9569 55.7477607,294.5699 C55.7667607,294.6439 55.7757607,294.6969 55.7767607,294.7269 C55.7927607,294.7409 55.8017607,294.7559 55.8017607,294.7709 C55.8027607,294.7859 55.8107607,294.8009 55.8257607,294.8159 L55.9547607,295.1959 C56.1697607,295.6549 56.4747607,296.0649 56.8667607,296.4259 C57.3217607,296.8449 57.8717607,297.1769 58.5157607,297.4219 C59.2357607,297.6789 59.9967607,297.8139 60.7967607,297.8249 C61.5977607,297.8379 62.4077607,297.7139 63.2277607,297.4529 C64.0327607,297.2089 64.7577607,296.8539 65.4027607,296.3899 C66.0477607,295.9249 66.5777607,295.4059 66.9917607,294.8289 C67.4057607,294.2539 67.6857607,293.6419 67.8327607,292.9939 C67.9797607,292.3469 67.9647607,291.7089 67.7877607,291.0819 C67.7867607,291.0519 67.7857607,291.0299 67.7847607,291.0149 C67.7847607,290.9989 67.7757607,290.9849 67.7607607,290.9699 C67.7257607,290.8509 67.6657607,290.6949 67.5827607,290.5019 C67.1027607,289.4799 66.2487607,288.7379 65.0217607,288.2759 C64.3307607,287.9869 63.5817607,287.8399 62.7727607,287.835809 C61.9657607,287.8319 61.1517607,287.9599 60.3317607,288.2199 L60.3317607,288.2199 Z M47.4917607,297.5379 L61.3407607,282.4939 L62.7767607,283.8159 L61.0647607,285.6759 C62.0577607,285.5739 63.0387607,285.6809 64.0107607,285.9949 C64.9827607,286.3099 65.8607607,286.8289 66.6447607,287.5509 C67.4307607,288.2739 68.0237607,289.1249 68.4267607,290.1049 C68.4777607,290.2389 68.5367607,290.3949 68.6047607,290.5739 C68.6557607,290.7069 68.6827607,290.8189 68.6857607,290.9089 C68.7217607,291.0289 68.7667607,291.1849 68.8187607,291.3789 C69.0467607,292.4879 69.0167607,293.5979 68.7297607,294.7119 C68.4447607,295.8249 67.8897607,296.8299 67.0657607,297.7249 C66.4017607,298.4469 65.6317607,298.9989 64.7567607,299.3829 C63.8817607,299.7669 62.9847607,299.9779 62.0647607,300.0149 C61.1457607,300.0529 60.2377607,299.9129 59.3417607,299.5959 C58.4457607,299.2779 57.6357607,298.7869 56.9137607,298.1219 C56.4277607,297.6739 56.0187607,297.1899 55.6867607,296.6669 C55.3567607,296.1449 55.1037607,295.5999 54.9297607,295.0329 C54.9137607,295.0199 54.9057607,294.9959 54.9037607,294.9669 C54.8887607,294.9519 54.8867607,294.9219 54.8997607,294.8759 C54.6737607,294.1459 54.5687607,293.4249 54.5837607,292.7149 L48.9277607,298.8599 L47.4917607,297.5379 Z" id="Fill-50" fill="#000000"></path>
                        <path d="M44.3645607,270.2023 C43.5145607,270.3353 42.7365607,270.5813 42.0275607,270.9413 C41.3185607,271.3023 40.7165607,271.7353 40.2185607,272.2403 C39.7215607,272.7473 39.3515607,273.3083 39.1075607,273.9263 C38.8635607,274.5443 38.7725607,275.1823 38.8345607,275.8423 C38.8475607,275.8583 38.8535607,275.8743 38.8515607,275.8893 C38.8505607,275.9043 38.8475607,275.9273 38.8445607,275.9573 C38.8575607,275.9733 38.8635607,275.9893 38.8615607,276.0053 C38.8605607,276.0193 38.8655607,276.0353 38.8795607,276.0523 L38.9685607,276.4723 C39.0485607,276.7093 39.1565607,276.9563 39.2945607,277.2153 C39.4325607,277.4733 39.5885607,277.7113 39.7605607,277.9283 C40.1475607,278.4113 40.6335607,278.8143 41.2185607,279.1393 C41.8875607,279.5333 42.6215607,279.7943 43.4195607,279.9213 C44.2175607,280.0493 45.0405607,280.0473 45.8905607,279.9153 C46.7405607,279.7823 47.5155607,279.5403 48.2155607,279.1853 C48.9155607,278.8323 49.5145607,278.4023 50.0105607,277.8963 C50.5085607,277.3903 50.8835607,276.8263 51.1355607,276.2013 C51.3885607,275.5773 51.4745607,274.9413 51.3955607,274.2953 C51.4025607,274.2353 51.3995607,274.1973 51.3855607,274.1803 C51.3725607,274.0263 51.3395607,273.8483 51.2865607,273.6453 C51.1305607,273.1413 50.8555607,272.6513 50.4615607,272.1753 C50.0675607,271.6983 49.5835607,271.3063 49.0105607,270.9983 C48.3555607,270.6213 47.6255607,270.3643 46.8205607,270.2283 C46.0165607,270.0923 45.1975607,270.0843 44.3645607,270.2023 L44.3645607,270.2023 Z M34.7145607,274.0133 L46.2965607,264.7723 L47.5135607,266.2993 L45.5115607,267.8953 C46.5255607,267.9333 47.4955607,268.1823 48.4225607,268.6433 C49.3495607,269.1043 50.1525607,269.7613 50.8305607,270.6113 C51.4965607,271.4453 51.9465607,272.3683 52.1815607,273.3823 C52.2185607,273.4623 52.2425607,273.5443 52.2565607,273.6293 C52.2695607,273.7143 52.2795607,273.7953 52.2855607,273.8713 C52.3195607,273.9813 52.3355607,274.1043 52.3355607,274.2413 C52.3645607,274.3813 52.3855607,274.5433 52.3945607,274.7263 C52.4495607,275.8553 52.2505607,276.9493 51.7975607,278.0063 C51.3445607,279.0633 50.6425607,279.9723 49.6925607,280.7293 C48.9085607,281.3543 48.0555607,281.7903 47.1325607,282.0353 C46.2085607,282.2803 45.2905607,282.3513 44.3755607,282.2493 C43.4615607,282.1463 42.5815607,281.8733 41.7355607,281.4293 C40.8895607,280.9843 40.1605607,280.3793 39.5495607,279.6113 C39.1365607,279.0953 38.8085607,278.5513 38.5655607,277.9813 C38.3215607,277.4113 38.1465607,276.8283 38.0395607,276.2303 C38.0265607,276.2153 38.0125607,276.1973 37.9995607,276.1813 C38.0035607,276.1513 38.0065607,276.1213 38.0095607,276.0913 C37.9105607,275.3503 37.9265607,274.6013 38.0575607,273.8423 L35.9315607,275.5383 L34.7145607,274.0133 Z" id="Fill-52" fill="#000000"></path>
                        <path d="M45.1945607,263.2013 L32.7435607,271.2313 L31.6685607,269.5643 L33.7925607,268.1943 C33.2375607,268.1203 32.6935607,267.9653 32.1575607,267.7253 C31.6645607,267.5113 31.1665607,267.2223 30.6665607,266.8593 C30.1665607,266.4973 29.7135607,266.0023 29.3085607,265.3743 C28.9035607,264.7473 28.6375607,264.0173 28.5075607,263.1873 C28.3785607,262.3563 28.3895607,261.5183 28.5415607,260.6723 C28.6935607,259.8253 28.9955607,259.0143 29.4475607,258.2403 C29.9005607,257.4663 30.5035607,256.8363 31.2565607,256.3493 C32.0275607,255.8523 32.8045607,255.3463 33.5875607,254.8273 C34.3705607,254.3093 35.0935607,253.8373 35.7565607,253.4093 C36.4985607,252.9063 37.2215607,252.4143 37.9265607,251.9333 L38.9505607,253.5193 L33.2095607,257.2223 C32.4725607,257.6983 31.8205607,258.2463 31.2535607,258.8653 C30.6865607,259.4853 30.2515607,260.1343 29.9505607,260.8093 C29.6495607,261.4863 29.5075607,262.1753 29.5255607,262.8743 C29.5435607,263.5723 29.7605607,264.2453 30.1765607,264.8903 C30.6055607,265.5543 31.1175607,266.0423 31.7145607,266.3553 C32.3105607,266.6693 32.9795607,266.8283 33.7195607,266.8323 C34.4605607,266.8373 35.2405607,266.6953 36.0605607,266.4083 C36.8805607,266.1203 37.7215607,265.6983 38.5835607,265.1413 L44.1365607,261.5603 L45.1945607,263.2013 Z" id="Fill-54" fill="#000000"></path>
                        <path d="M23.8469607,245.8488 C23.9419607,245.8528 24.0439607,245.8588 24.1519607,245.8678 C24.2609607,245.8768 24.3719607,245.8788 24.4869607,245.8738 L20.4509607,237.0228 C19.7839607,237.3968 19.2449607,237.8598 18.8329607,238.4108 C18.4219607,238.9618 18.1609607,239.5778 18.0539607,240.2608 C18.0719607,240.2998 18.0699607,240.3468 18.0489607,240.4038 C18.0579607,240.4228 18.0599607,240.4398 18.0549607,240.4528 C18.0499607,240.4678 18.0519607,240.4848 18.0599607,240.5038 L18.0329607,240.9038 C18.0449607,241.3898 18.1709607,241.8958 18.4099607,242.4188 C18.6669607,242.9828 19.0389607,243.4928 19.5269607,243.9508 C20.6579607,245.0518 22.0969607,245.6858 23.8469607,245.8488 M24.7509607,236.1178 C24.3799607,236.0758 23.9929607,236.0758 23.5909607,236.1188 L22.6079607,233.9638 C23.4279607,233.7548 24.2509607,233.6958 25.0779607,233.7868 C25.9059607,233.8788 26.6869607,234.1028 27.4239607,234.4588 C28.1599607,234.8148 28.8279607,235.2898 29.4279607,235.8838 C30.0269607,236.4788 30.5119607,237.1828 30.8839607,237.9978 C31.3259607,238.9688 31.5389607,239.9738 31.5209607,241.0138 C31.5179607,241.1088 31.5179607,241.1968 31.5199607,241.2788 C31.5220128,241.3598 31.5159607,241.4378 31.5039607,241.5138 C31.4919607,241.5898 31.4869607,241.6568 31.4899607,241.7128 C31.4929607,241.7708 31.4839607,241.8278 31.4629607,241.8838 C31.4509607,241.9598 31.4379607,242.0358 31.4259607,242.1118 C31.4139607,242.1878 31.3919607,242.2678 31.3599607,242.3528 C31.1689607,243.4718 30.7209607,244.4908 30.0169607,245.4098 C29.3129607,246.3278 28.4189607,247.0358 27.3339607,247.5298 C26.4239607,247.9448 25.4869607,248.1608 24.5239607,248.1778 C23.5609607,248.1948 22.6489607,248.0418 21.7879607,247.7188 C20.9279607,247.3968 20.1469607,246.9148 19.4449607,246.2738 C18.7429607,245.6318 18.1879607,244.8658 17.7809607,243.9718 C17.5069607,243.3698 17.3139607,242.7608 17.2019607,242.1438 C17.0909607,241.5258 17.0699607,240.9198 17.1389607,240.3268 C17.1299607,240.3068 17.1209607,240.2868 17.1119607,240.2678 C17.1229607,240.2398 17.1339607,240.2108 17.1439607,240.1828 C17.2489607,239.1268 17.5829607,238.1368 18.1459607,237.2118 C18.7089607,236.2858 19.4599607,235.5168 20.3979607,234.9018 L25.3759607,245.8198 C26.0469607,245.7478 26.6819607,245.5998 27.2829607,245.3718 C27.8829607,245.1468 28.4109607,244.8528 28.8679607,244.4918 C29.3249607,244.1308 29.7029607,243.7118 30.0009607,243.2368 C30.2999607,242.7608 30.4879607,242.2458 30.5649607,241.6958 C30.5669607,241.6488 30.5689607,241.6008 30.5699607,241.5528 C30.6039607,241.4198 30.6089607,241.2528 30.5879607,241.0518 C30.5429607,239.9238 30.0489607,238.9178 29.1069607,238.0348 C28.5539607,237.4908 27.9059607,237.0588 27.1629607,236.7408 C26.4199607,236.4228 25.6159607,236.2148 24.7509607,236.1178" id="Fill-56" fill="#000000"></path>
                        <path d="M27.4899607,230.3273 L13.4799607,235.1463 L12.8339607,233.2703 L15.2249607,232.4483 C14.7039607,232.2443 14.2119607,231.9633 13.7489607,231.6023 C13.3219607,231.2753 12.9069607,230.8773 12.5089607,230.4053 C12.1089607,229.9333 11.7879607,229.3453 11.5449607,228.6383 C11.3029607,227.9323 11.2179607,227.1603 11.2899607,226.3233 C11.3629607,225.4863 11.5749607,224.6753 11.9249607,223.8893 C12.2749607,223.1023 12.7619607,222.3883 13.3859607,221.7443 C14.0109607,221.1003 14.7469607,220.6333 15.5939607,220.3423 C16.4619607,220.0433 17.3379607,219.7363 18.2209607,219.4213 C19.1059607,219.1053 19.9209607,218.8193 20.6669607,218.5623 C21.5079607,218.2513 22.3279607,217.9463 23.1279607,217.6483 L23.7419607,219.4333 L17.2819607,221.6563 C16.4519607,221.9413 15.6889607,222.3173 14.9899607,222.7833 C14.2909607,223.2493 13.7139607,223.7753 13.2599607,224.3593 C12.8049607,224.9453 12.5029607,225.5793 12.3539607,226.2623 C12.2039607,226.9453 12.2539607,227.6493 12.5039607,228.3763 C12.7609607,229.1223 13.1419607,229.7193 13.6459607,230.1663 C14.1499607,230.6133 14.7609607,230.9283 15.4789607,231.1083 C16.1979607,231.2903 16.9889607,231.3403 17.8539607,231.2563 C18.7189607,231.1733 19.6359607,230.9653 20.6069607,230.6313 L26.8549607,228.4803 L27.4899607,230.3273 Z" id="Fill-58" fill="#000000"></path>
                        <polygon id="Fill-60" fill="#000000" points="5.58226068 208.3957 21.2772607 210.1957 21.9002607 212.6777 8.92626068 221.7097 8.34126068 219.3827 21.0142607 211.1197 5.93326068 209.7917"></polygon>
                        <path d="M19.8596607,203.7472 L5.30766068,206.5292 L4.92866068,204.5492 L19.4816607,201.7672 L19.8596607,203.7472 Z M2.50566068,206.0222 C2.57466068,206.3792 2.51066068,206.7002 2.31666068,206.9872 C2.12166068,207.2742 1.85666068,207.4492 1.52066068,207.5142 C1.16466068,207.5822 0.842660684,207.5182 0.555660684,207.3232 C0.269660684,207.1292 0.091660684,206.8532 0.023660684,206.4972 C-0.040339316,206.1622 0.025660684,205.8512 0.219660684,205.5632 C0.414660684,205.2762 0.690660684,205.0992 1.04666068,205.0302 C1.38166068,204.9672 1.69266068,205.0322 1.97966068,205.2262 C2.26666068,205.4222 2.44266068,205.6872 2.50566068,206.0222 L2.50566068,206.0222 Z" id="Fill-62" fill="#000000"></path>
                        <path d="M4.11356068,196.1857 C3.70056068,195.2087 3.52256068,194.1787 3.57956068,193.0937 C3.63656068,192.0097 3.93156068,190.9787 4.46656068,190.0017 L5.97956068,191.1527 C5.38956068,191.8777 4.99956068,192.6477 4.80756068,193.4587 C4.61756068,194.2717 4.67056068,195.0557 4.96756068,195.8117 C4.96956068,195.8327 4.97556068,195.8747 4.98456068,195.9387 C5.00556068,195.9357 5.01756068,195.9447 5.02056068,195.9657 C5.02356068,195.9877 5.02656068,196.0077 5.02956068,196.0297 L5.20756068,196.3927 C5.34556068,196.6107 5.50256068,196.8157 5.67856068,197.0057 C5.94556068,197.3787 6.34356068,197.7027 6.87656068,197.9737 C7.33956068,198.2117 7.94656068,198.4037 8.69856068,198.5487 C9.45056068,198.6947 10.4245607,198.7287 11.6195607,198.6517 L18.7535607,197.6797 L19.0165607,199.6137 L4.33656068,201.6137 L4.07256068,199.6797 L6.57756068,199.3377 C6.53256068,199.3237 6.48656068,199.2967 6.43756068,199.2607 C5.40556068,198.4757 4.64656068,197.4917 4.16256068,196.3087 C4.14156068,196.3117 4.12956068,196.3027 4.12656068,196.2817 C4.12056068,196.2397 4.11656068,196.2067 4.11356068,196.1857" id="Fill-64" fill="#000000"></path>
                        <path d="M12.0197607,177.4992 C11.2307607,177.1122 10.4377607,176.8552 9.64076068,176.7262 C8.84376068,176.5972 8.08476068,176.5992 7.36576068,176.7322 C6.64676068,176.8662 6.00276068,177.1132 5.43376068,177.4742 C4.86576068,177.8352 4.41476068,178.3122 4.08276068,178.9062 C4.06376068,178.9502 4.03576068,179.0162 3.99676068,179.1032 L3.82476068,179.4972 C3.63676068,179.9772 3.55676068,180.4932 3.58576068,181.0472 C3.61776068,181.6652 3.78976068,182.2972 4.10076068,182.9432 C4.77576068,184.4032 5.90276068,185.5412 7.48376068,186.3552 C8.27276068,186.7412 9.06576068,186.9992 9.86276068,187.1282 C10.6607607,187.2582 11.4137607,187.2612 12.1227607,187.1392 C12.8317607,187.0172 13.4767607,186.7692 14.0547607,186.3962 C14.6337607,186.0252 15.0787607,185.5422 15.3887607,184.9492 L15.4797607,184.8492 C15.5367607,184.7172 15.6037607,184.5542 15.6787607,184.3572 C16.0707607,183.2692 15.9777607,182.1202 15.4027607,180.9112 C15.0877607,180.2012 14.6377607,179.5572 14.0517607,178.9782 C13.4667607,178.4002 12.7897607,177.9072 12.0197607,177.4992 M3.22776068,178.5022 C3.81076068,177.3832 4.63876068,176.4642 5.71176068,175.7452 C6.78576068,175.0272 8.00376068,174.6322 9.36676068,174.5612 C10.3687607,174.5092 11.3267607,174.6562 12.2417607,175.0042 C13.1577607,175.3522 13.9677607,175.8382 14.6737607,176.4632 C15.3787607,177.0892 15.9467607,177.8382 16.3767607,178.7132 C16.8077607,179.5882 17.0487607,180.5362 17.1027607,181.5602 C17.1597607,182.6452 16.9797607,183.6912 16.5627607,184.6952 C16.5247607,184.7832 16.4577607,184.9362 16.3627607,185.1542 C16.2857607,185.3092 16.2277607,185.4182 16.1887607,185.4842 C16.1297607,185.5952 16.0517607,185.7272 15.9537607,185.8812 C15.3237607,186.8752 14.5067607,187.6772 13.5047607,188.2842 C12.5027607,188.8922 11.3857607,189.2282 10.1517607,189.2922 C9.13176068,189.3462 8.16576068,189.2032 7.25276068,188.8662 C6.33976068,188.5302 5.53676068,188.0432 4.84176068,187.4062 C4.14776068,186.7702 3.58676068,186.0142 3.15776068,185.1392 C2.72776068,184.2652 2.48676068,183.3262 2.43476068,182.3252 C2.36576068,181.0042 2.61076068,179.7732 3.17076068,178.6342 C3.16976068,178.6122 3.18076068,178.6012 3.20176068,178.6002 C3.19876068,178.5582 3.20776068,178.5252 3.22776068,178.5022" id="Fill-66" fill="#000000"></path>
                        <path d="M16.7541607,172.9025 L1.95216068,172.2495 L2.04016068,170.2665 L4.56616068,170.3785 C4.15516068,169.9975 3.80116068,169.5545 3.50316068,169.0495 C3.22516068,168.5895 2.98616068,168.0665 2.78816068,167.4805 C2.58916068,166.8955 2.50616068,166.2305 2.54016068,165.4845 C2.57216068,164.7385 2.77616068,163.9895 3.15116068,163.2365 C3.52616068,162.4845 4.02116068,161.8075 4.63416068,161.2045 C5.24916068,160.6015 5.96316068,160.1155 6.78116068,159.7455 C7.59816068,159.3765 8.45416068,159.2115 9.34916068,159.2505 C10.2661607,159.2915 11.1931607,159.3275 12.1311607,159.3575 C13.0701607,159.3875 13.9331607,159.4215 14.7211607,159.4565 C15.6171607,159.4745 16.4921607,159.4915 17.3461607,159.5075 L17.2621607,161.3935 L10.4371607,161.0915 C9.56116068,161.0535 8.71216068,161.1235 7.89116068,161.2995 C7.07016068,161.4775 6.34116068,161.7555 5.70316068,162.1315 C5.06616068,162.5095 4.55216068,162.9895 4.16316068,163.5695 C3.77416068,164.1505 3.56216068,164.8245 3.52716068,165.5915 C3.49316068,166.3805 3.62916068,167.0755 3.93416068,167.6755 C4.23916068,168.2765 4.69216068,168.7935 5.29416068,169.2245 C5.89516068,169.6575 6.61316068,169.9935 7.44816068,170.2335 C8.28316068,170.4735 9.21316068,170.6155 10.2391607,170.6615 L16.8401607,170.9525 L16.7541607,172.9025 Z" id="Fill-68" fill="#000000"></path>
                        <path d="M5.66826068,138.9572 C5.83726068,137.9032 6.20326068,137.0332 6.76726068,136.3462 C7.33126068,135.6582 8.01026068,135.1302 8.80326068,134.7602 C9.59726068,134.3902 10.4652607,134.1672 11.4052607,134.0902 C12.3472607,134.0142 13.2712607,134.0492 14.1762607,134.1932 L20.9702607,135.2812 L20.7072607,136.9242 C19.9472607,136.8032 19.1872607,136.6812 18.4262607,136.5592 C17.7302607,136.4472 17.0172607,136.3332 16.2882607,136.2172 C15.5602607,136.1012 14.8682607,135.9892 14.2142607,135.8852 C13.5802607,135.7832 12.8532607,135.7272 12.0322607,135.7142 C11.2112607,135.7012 10.4272607,135.8032 9.67726068,136.0182 C8.92826068,136.2322 8.27126068,136.5862 7.70526068,137.0792 C7.13926068,137.5712 6.78326068,138.2712 6.63826068,139.1772 C6.49326068,140.0832 6.61326068,140.8532 6.99926068,141.4862 C7.38526068,142.1212 7.90026068,142.6572 8.54426068,143.0952 C9.18926068,143.5332 9.88726068,143.8722 10.6392607,144.1112 C11.3922607,144.3512 12.0732607,144.5192 12.6862607,144.6172 C13.2772607,144.7122 13.9532607,144.8202 14.7132607,144.9412 C15.4732607,145.0632 16.1912607,145.1782 16.8662607,145.2862 C17.6692607,145.4152 18.4822607,145.5452 19.3052607,145.6772 L19.0322607,147.3832 C18.2762607,147.2402 17.5172607,147.1082 16.7572607,146.9862 C16.0602607,146.8752 15.3482607,146.7612 14.6192607,146.6442 C13.8912607,146.5272 13.1992607,146.4172 12.5442607,146.3112 C12.3762607,146.2852 12.2012607,146.2632 12.0202607,146.2442 C11.8382607,146.2272 11.6412607,146.2112 11.4262607,146.1972 C10.7822607,146.1602 10.1102607,146.1662 9.40926068,146.2172 C8.70826068,146.2672 8.04526068,146.4162 7.42126068,146.6622 C6.79726068,146.9102 6.26326068,147.2702 5.81926068,147.7402 C5.37626068,148.2112 5.09126068,148.8382 4.96626068,149.6192 C4.83126068,150.4662 4.92926068,151.2022 5.26226068,151.8302 C5.59526068,152.4582 6.05126068,152.9862 6.63226068,153.4162 C7.21326068,153.8452 7.85726068,154.1862 8.56426068,154.4402 C9.27126068,154.6942 9.92826068,154.8812 10.5372607,155.0002 C10.6422607,155.0172 10.7902607,155.0402 10.9802607,155.0702 C11.5922607,155.1692 12.2792607,155.2782 13.0392607,155.4002 C13.7992607,155.5222 14.5172607,155.6372 15.1922607,155.7452 C15.9952607,155.8742 16.8082607,156.0042 17.6312607,156.1362 L17.3232607,158.0622 L2.69326068,155.7212 L3.00126068,153.7942 L5.47126068,154.1562 C4.91726068,153.5712 4.49126068,152.8872 4.19526068,152.1052 C3.89926068,151.3232 3.83426068,150.4162 3.99926068,149.3842 C4.20826068,148.0782 4.71726068,147.0582 5.52626068,146.3222 C6.33526068,145.5892 7.28226068,145.0702 8.36826068,144.7692 C7.93826068,144.4832 7.53926068,144.1442 7.16926068,143.7502 C6.80026068,143.3562 6.48726068,142.9172 6.23026068,142.4332 C5.97326068,141.9492 5.78826068,141.4172 5.67526068,140.8372 C5.56326068,140.2582 5.56026068,139.6312 5.66826068,138.9572" id="Fill-70" fill="#000000"></path>
                        <path d="M13.1594607,128.7785 C13.2284607,128.8435 13.3014607,128.9155 13.3764607,128.9935 C13.4524607,129.0725 13.5344607,129.1465 13.6244607,129.2175 L16.4124607,119.8985 C15.6644607,119.7415 14.9534607,119.7345 14.2814607,119.8785 C13.6084607,120.0225 13.0074607,120.3155 12.4764607,120.7575 C12.4644607,120.7995 12.4314607,120.8345 12.3794607,120.8625 C12.3724607,120.8825 12.3634607,120.8965 12.3504607,120.9045 C12.3374607,120.9115 12.3274607,120.9245 12.3214607,120.9455 L12.0384607,121.2275 C11.7274607,121.6025 11.4894607,122.0655 11.3244607,122.6175 C11.1464607,123.2115 11.0904607,123.8405 11.1574607,124.5055 C11.2834607,126.0795 11.9504607,127.5045 13.1594607,128.7785 M20.2454607,122.0475 C19.9944607,121.7715 19.7024607,121.5165 19.3714607,121.2845 L20.0504607,119.0155 C20.8044607,119.3975 21.4634607,119.8945 22.0254607,120.5085 C22.5884607,121.1225 23.0294607,121.8055 23.3494607,122.5575 C23.6704607,123.3105 23.8604607,124.1085 23.9194607,124.9505 C23.9804607,125.7925 23.8814607,126.6415 23.6244607,127.5005 C23.3184607,128.5225 22.8174607,129.4195 22.1194607,130.1895 C22.0554607,130.2595 21.9964607,130.3255 21.9444607,130.3875 C21.8924607,130.4505 21.8374607,130.5065 21.7774607,130.5545 C21.7184607,130.6035 21.6704607,130.6515 21.6354607,130.6965 C21.5994607,130.7415 21.5554607,130.7785 21.5024607,130.8065 C21.4434607,130.8555 21.3844607,130.9045 21.3254607,130.9545 C21.2654607,131.0035 21.1964607,131.0495 21.1174607,131.0915 C20.2364607,131.8085 19.2284607,132.2805 18.0934607,132.5085 C16.9584607,132.7375 15.8204607,132.6805 14.6784607,132.3395 C13.7204607,132.0515 12.8724607,131.5985 12.1364607,130.9775 C11.4004607,130.3565 10.8134607,129.6405 10.3784607,128.8315 C9.94346068,128.0225 9.67246068,127.1455 9.56646068,126.2005 C9.46046068,125.2565 9.54746068,124.3125 9.82846068,123.3735 C10.0184607,122.7395 10.2744607,122.1535 10.5964607,121.6155 C10.9194607,121.0775 11.3024607,120.6075 11.7444607,120.2055 C11.7514607,120.1845 11.7574607,120.1645 11.7634607,120.1435 C11.7894607,120.1305 11.8164607,120.1155 11.8434607,120.1005 C12.6174607,119.3755 13.5204607,118.8485 14.5534607,118.5235 C15.5854607,118.1975 16.6584607,118.1125 17.7694607,118.2665 L14.3294607,129.7625 C14.8824607,130.1515 15.4584607,130.4575 16.0594607,130.6805 C16.6594607,130.9065 17.2514607,131.0325 17.8324607,131.0615 C18.4144607,131.0915 18.9744607,131.0245 19.5124607,130.8625 C20.0504607,130.7015 20.5304607,130.4375 20.9504607,130.0735 C20.9834607,130.0395 21.0164607,130.0055 21.0484607,129.9695 C21.1604607,129.8915 21.2754607,129.7695 21.3914607,129.6045 C22.1004607,128.7255 22.3904607,127.6435 22.2634607,126.3575 C22.2054607,125.5845 22.0014607,124.8325 21.6514607,124.1035 C21.3014607,123.3765 20.8334607,122.6905 20.2454607,122.0475" id="Fill-72" fill="#000000"></path>
                        <path d="M26.1218607,119.4689 L12.3948607,113.8949 L13.1418607,112.0559 L15.4838607,113.0069 C15.2248607,112.5109 15.0388607,111.9759 14.9278607,111.4009 C14.8198607,110.8719 14.7698607,110.2999 14.7788607,109.6819 C14.7888607,109.0639 14.9328607,108.4089 15.2138607,107.7169 C15.4948607,107.0259 15.9388607,106.3879 16.5428607,105.8049 C17.1488607,105.2219 17.8418607,104.7489 18.6218607,104.3869 C19.4018607,104.0249 20.2388607,103.8059 21.1328607,103.7319 C22.0268607,103.6569 22.8888607,103.7879 23.7188607,104.1249 C24.5688607,104.4709 25.4308607,104.8159 26.3038607,105.1579 C27.1778607,105.5019 27.9808607,105.8219 28.7118607,106.1179 C29.5498607,106.4369 30.3688607,106.7449 31.1668607,107.0469 L30.4558607,108.7959 L24.1268607,106.2249 C23.3138607,105.8949 22.4918607,105.6769 21.6588607,105.5689 C20.8258607,105.4599 20.0448607,105.4779 19.3178607,105.6189 C18.5908607,105.7619 17.9468607,106.0409 17.3848607,106.4569 C16.8238607,106.8739 16.3978607,107.4389 16.1088607,108.1499 C15.8118607,108.8809 15.7068607,109.5809 15.7938607,110.2489 C15.8798607,110.9179 16.1338607,111.5569 16.5558607,112.1649 C16.9778607,112.7739 17.5418607,113.3309 18.2478607,113.8369 C18.9548607,114.3429 19.7838607,114.7879 20.7348607,115.1739 L26.8558607,117.6599 L26.1218607,119.4689 Z" id="Fill-74" fill="#000000"></path>
                        <path d="M33.8752607,95.9494 C34.0852607,95.8644 34.2932607,95.7724 34.4992607,95.6734 C34.7052607,95.5744 34.9032607,95.4764 35.0942607,95.3824 C35.3772607,96.0524 35.5102607,96.7584 35.4932607,97.5024 C35.4752607,98.2464 35.2642607,99.0174 34.8602607,99.8174 C34.3122607,100.9024 33.5982607,101.6894 32.7172607,102.1774 C31.8382607,102.6644 30.9042607,102.9514 29.9162607,103.0374 C28.9282607,103.1244 27.9412607,103.0434 26.9552607,102.7954 C25.9682607,102.5484 25.0852607,102.2264 24.3042607,101.8324 L19.9922607,99.6524 L19.2842607,101.0524 L18.5992607,100.7054 L19.3062607,99.3054 L13.6512607,96.4484 L14.5902607,94.5924 L20.2452607,97.4504 L22.1932607,93.5944 L22.8792607,93.9404 L20.9302607,97.7964 C21.2922607,97.9794 21.7202607,98.1954 22.2152607,98.4454 C22.7102607,98.6964 23.1932607,98.9464 23.6652607,99.1964 C24.1362607,99.4464 24.5712607,99.6734 24.9712607,99.8744 C25.3712607,100.0764 25.6662607,100.2254 25.8562607,100.3224 C26.3902607,100.5924 27.0382607,100.8474 27.7992607,101.0894 C28.5622607,101.3314 29.3242607,101.4664 30.0872607,101.4924 C30.8512607,101.5194 31.5812607,101.3864 32.2792607,101.0944 C32.9772607,100.8024 33.5322607,100.2464 33.9462607,99.4274 C34.2642607,98.7994 34.4022607,98.1934 34.3622607,97.6114 C34.3212607,97.0294 34.1592607,96.4754 33.8752607,95.9494" id="Fill-76" fill="#000000"></path>
                        <path d="M38.2902607,84.2091 C37.8792607,83.4541 37.3842607,82.8041 36.8062607,82.2581 C36.2272607,81.7131 35.6162607,81.2921 34.9722607,80.9941 C34.3282607,80.6971 33.6742607,80.5381 33.0102607,80.5171 C32.3462607,80.4961 31.7152607,80.6261 31.1152607,80.9071 C31.1032607,80.9261 31.0912607,80.9371 31.0762607,80.9401 C31.0612607,80.9431 31.0392607,80.9491 31.0102607,80.9561 C30.9982607,80.9741 30.9862607,80.9851 30.9712607,80.9881 C30.9562607,80.9921 30.9432607,81.0031 30.9322607,81.0211 L30.5672607,81.2461 C30.3712607,81.4011 30.1752607,81.5871 29.9782607,81.8051 C29.7822607,82.0211 29.6102607,82.2481 29.4652607,82.4831 C29.1402607,83.0111 28.9232607,83.6051 28.8162607,84.2651 C28.6712607,85.0281 28.6732607,85.8071 28.8232607,86.6011 C28.9722607,87.3951 29.2522607,88.1691 29.6642607,88.9241 C30.0752607,89.6801 30.5652607,90.3271 31.1342607,90.8661 C31.7042607,91.4061 32.3112607,91.8241 32.9552607,92.1211 C33.5982607,92.4191 34.2572607,92.5811 34.9302607,92.6071 C35.6022607,92.6351 36.2302607,92.5021 36.8112607,92.2091 C36.8712607,92.1951 36.9052607,92.1791 36.9162607,92.1601 C37.0572607,92.0971 37.2132607,92.0051 37.3872607,91.8871 C37.8082607,91.5701 38.1762607,91.1461 38.4922607,90.6131 C38.8082607,90.0821 39.0142607,89.4941 39.1102607,88.8521 C39.2442607,88.1061 39.2392607,87.3331 39.0952607,86.5291 C38.9522607,85.7271 38.6832607,84.9531 38.2902607,84.2091 L38.2902607,84.2091 Z M31.4462607,76.4111 L44.0532607,84.1931 L43.0282607,85.8551 L40.8502607,84.5101 C41.1562607,85.4771 41.2482607,86.4741 41.1272607,87.5021 C41.0062607,88.5301 40.6602607,89.5081 40.0892607,90.4341 C39.5282607,91.3411 38.8112607,92.0761 37.9372607,92.6401 C37.8742607,92.7011 37.8052607,92.7531 37.7292607,92.7941 C37.6542607,92.8351 37.5812607,92.8721 37.5112607,92.9031 C37.4182607,92.9731 37.3082607,93.0291 37.1802607,93.0751 C37.0582607,93.1501 36.9132607,93.2241 36.7432607,93.2951 C35.6992607,93.7281 34.6022607,93.9101 33.4542607,93.8401 C32.3072607,93.7721 31.2152607,93.4171 30.1802607,92.7781 C29.3272607,92.2521 28.6292607,91.5951 28.0862607,90.8091 C27.5442607,90.0221 27.1662607,89.1831 26.9552607,88.2861 C26.7432607,87.3921 26.7032607,86.4711 26.8362607,85.5241 C26.9682607,84.5781 27.2922607,83.6881 27.8082607,82.8531 C28.1552607,82.2901 28.5562607,81.7981 29.0102607,81.3761 C29.4642607,80.9551 29.9552607,80.5931 30.4802607,80.2901 C30.4912607,80.2721 30.5022607,80.2541 30.5142607,80.2361 C30.5432607,80.2301 30.5732607,80.2231 30.6022607,80.2151 C31.2652607,79.8721 31.9762607,79.6341 32.7352607,79.5011 L30.4202607,78.0721 L31.4462607,76.4111 Z" id="Fill-78" fill="#000000"></path>
                        <polygon id="Fill-80" fill="#000000" points="45.3615607 82.5675 28.6915607 70.7255 29.8215607 69.1345 46.4915607 80.9755"></polygon>
                        <polygon id="Fill-82" fill="#000000" points="47.8825607 79.0724 31.5465607 66.7744 32.7205607 65.2154 49.0565607 77.5124"></polygon>
                        <polygon id="Fill-84" fill="#000000" points="47.1584607 56.5656 58.3564607 76.8176 57.5714607 77.7466 54.4224607 72.1046 38.2894607 67.0436 39.8404607 65.2116 53.0644607 69.6976 46.2284607 57.6646"></polygon>
                        <path d="M55.5041607,40.4367 C56.1741607,39.8117 56.8691607,39.3907 57.5861607,39.1737 C58.3031607,38.9577 59.0221607,38.8927 59.7441607,38.9787 C59.6361607,39.4577 59.5601607,39.9087 59.5151607,40.3287 C58.9311607,40.2037 58.3541607,40.1937 57.7841607,40.3017 C57.2141607,40.4107 56.6641607,40.7117 56.1331607,41.2067 C55.4781607,41.8177 55.1071607,42.4997 55.0201607,43.2497 C54.9341607,44.0017 55.0091607,44.7487 55.2471607,45.4887 C55.4851607,46.2287 55.8271607,46.9237 56.2721607,47.5737 C56.7171607,48.2237 57.1441607,48.7667 57.5511607,49.2037 L57.6381607,49.2967 L61.1261607,46.0457 L61.6501607,46.6077 L58.1621607,49.8587 C58.4531607,50.1707 58.7911607,50.5337 59.1761607,50.9477 C59.5621607,51.3607 59.9691607,51.7977 60.3991607,52.2577 C60.8281607,52.7177 61.2711607,53.1947 61.7301607,53.6857 C62.1881607,54.1767 62.6281607,54.6497 63.0491607,55.1017 C64.0681607,56.1947 65.1301607,57.3187 66.2371607,58.4737 L64.8331607,59.7837 L56.7811607,51.1457 L55.8211607,52.0407 L55.2971607,51.4787 L56.2801607,50.5627 L56.0411607,50.3047 C55.6331607,49.8687 55.2131607,49.2607 54.7801607,48.4837 C54.3471607,47.7067 54.0371607,46.8577 53.8501607,45.9377 C53.6641607,45.0177 53.6741607,44.0757 53.8821607,43.1087 C54.0891607,42.1427 54.6291607,41.2517 55.5041607,40.4367" id="Fill-86" fill="#000000"></path>
                        <path d="M65.6115607,40.0402 C66.2305607,39.1792 67.0175607,38.4902 67.9725607,37.9742 C68.9275607,37.4572 69.9615607,37.1722 71.0735607,37.1192 L70.8805607,39.0102 C69.9525607,38.8852 69.0925607,38.9522 68.3005607,39.2122 C67.5075607,39.4732 66.8665607,39.9272 66.3755607,40.5732 C66.3595607,40.5872 66.3255607,40.6142 66.2765607,40.6542 C66.2905607,40.6712 66.2885607,40.6862 66.2715607,40.6992 C66.2555607,40.7132 66.2385607,40.7272 66.2225607,40.7392 L66.0055607,41.0812 C65.8905607,41.3122 65.7985607,41.5542 65.7265607,41.8042 C65.5475607,42.2262 65.4795607,42.7342 65.5255607,43.3302 C65.5635607,43.8502 65.7155607,44.4682 65.9835607,45.1852 C66.2515607,45.9022 66.7295607,46.7512 67.4175607,47.7312 L71.9645607,53.3132 L70.4505607,54.5472 L61.0945607,43.0592 L62.6085607,41.8262 L64.2045607,43.7862 C64.1945607,43.7392 64.1925607,43.6862 64.1985607,43.6262 C64.3305607,42.3362 64.7755607,41.1762 65.5325607,40.1452 C65.5195607,40.1302 65.5205607,40.1142 65.5365607,40.1012 C65.5695607,40.0742 65.5945607,40.0542 65.6115607,40.0402" id="Fill-88" fill="#000000"></path>
                        <path d="M80.1960607,46.8273 L71.4730607,34.8513 L73.1020607,33.6643 L81.8250607,45.6403 L80.1960607,46.8273 Z M70.7370607,32.1013 C70.4440607,32.3153 70.1260607,32.3953 69.7830607,32.3413 C69.4400607,32.2873 69.1680607,32.1223 68.9670607,31.8473 C68.7540607,31.5543 68.6740607,31.2353 68.7280607,30.8923 C68.7810607,30.5503 68.9550607,30.2713 69.2480607,30.0573 C69.5240607,29.8573 69.8340607,29.7843 70.1760607,29.8383 C70.5190607,29.8913 70.7970607,30.0643 71.0110607,30.3583 C71.2120607,30.6343 71.2850607,30.9433 71.2310607,31.2863 C71.1770607,31.6293 71.0120607,31.9003 70.7370607,32.1013 L70.7370607,32.1013 Z" id="Fill-90" fill="#000000"></path>
                        <path d="M80.3156607,34.8664 C80.3256607,34.9614 80.3336607,35.0624 80.3386607,35.1724 C80.3446607,35.2804 80.3586607,35.3904 80.3796607,35.5034 L88.5876607,30.2824 C88.1246607,29.6744 87.5916607,29.2044 86.9896607,28.8724 C86.3866607,28.5414 85.7396607,28.3684 85.0486607,28.3564 C85.0126607,28.3794 84.9656607,28.3844 84.9076607,28.3714 C84.8886607,28.3834 84.8726607,28.3874 84.8586607,28.3844 C84.8436607,28.3814 84.8266607,28.3854 84.8096607,28.3964 L84.4096607,28.4244 C83.9296607,28.5044 83.4466607,28.6984 82.9606607,29.0074 C82.4386607,29.3404 81.9846607,29.7784 81.5986607,30.3254 C80.6636607,31.5974 80.2356607,33.1114 80.3156607,34.8664 M90.0796607,34.4164 C90.0696607,34.0434 90.0156607,33.6604 89.9176607,33.2664 L91.9156607,31.9964 C92.2356607,32.7784 92.4076607,33.5864 92.4316607,34.4184 C92.4546607,35.2504 92.3416607,36.0554 92.0906607,36.8344 C91.8406607,37.6134 91.4616607,38.3404 90.9566607,39.0154 C90.4506607,39.6914 89.8196607,40.2694 89.0646607,40.7504 C88.1636607,41.3224 87.1976607,41.6724 86.1666607,41.7994 C86.0706607,41.8084 85.9836607,41.8204 85.9036607,41.8334 C85.8236607,41.8464 85.7456607,41.8524 85.6686607,41.8504 C85.5916607,41.8484 85.5246607,41.8534 85.4686607,41.8644 C85.4116607,41.8754 85.3546607,41.8744 85.2946607,41.8604 C85.2186607,41.8594 85.1416607,41.8574 85.0656607,41.8564 C84.9876607,41.8544 84.9056607,41.8444 84.8166607,41.8244 C83.6816607,41.7894 82.6116607,41.4864 81.6036607,40.9164 C80.5966607,40.3464 79.7736607,39.5584 79.1336607,38.5534 C78.5966607,37.7094 78.2526607,36.8104 78.1026607,35.8594 C77.9526607,34.9074 77.9776607,33.9834 78.1786607,33.0864 C78.3786607,32.1894 78.7486607,31.3494 79.2866607,30.5654 C79.8246607,29.7814 80.5076607,29.1264 81.3356607,28.5994 C81.8936607,28.2454 82.4706607,27.9704 83.0666607,27.7734 C83.6636607,27.5784 84.2596607,27.4724 84.8576607,27.4594 C84.8756607,27.4484 84.8936607,27.4364 84.9116607,27.4254 C84.9406607,27.4314 84.9706607,27.4384 85.0006607,27.4444 C86.0606607,27.4024 87.0876607,27.5954 88.0816607,28.0254 C89.0756607,28.4554 89.9416607,29.0934 90.6816607,29.9364 L80.5556607,36.3774 C80.7196607,37.0314 80.9546607,37.6404 81.2626607,38.2034 C81.5696607,38.7664 81.9336607,39.2494 82.3546607,39.6514 C82.7746607,40.0544 83.2416607,40.3714 83.7536607,40.6004 C84.2666607,40.8314 84.8016607,40.9454 85.3576607,40.9454 C85.4056607,40.9404 85.4526607,40.9364 85.5006607,40.9304 C85.6356607,40.9464 85.8026607,40.9284 85.9986607,40.8794 C87.1096607,40.6784 88.0376607,40.0514 88.7826607,38.9954 C89.2456607,38.3724 89.5826607,37.6714 89.7946607,36.8904 C90.0066607,36.1114 90.1026607,35.2864 90.0796607,34.4164" id="Fill-92" fill="#000000"></path>
                        <path d="M96.1887607,36.3283 L89.5037607,23.1063 L91.2737607,22.2113 L92.4147607,24.4673 C92.5457607,23.9233 92.7577607,23.3973 93.0517607,22.8903 C93.3167607,22.4223 93.6557607,21.9573 94.0687607,21.4973 C94.4817607,21.0373 95.0207607,20.6403 95.6877607,20.3023 C96.3537607,19.9663 97.1067607,19.7763 97.9457607,19.7343 C98.7857607,19.6923 99.6187607,19.7913 100.444761,20.0303 C101.270761,20.2703 102.045761,20.6553 102.768761,21.1863 C103.490761,21.7183 104.054761,22.3833 104.458761,23.1823 C104.872761,24.0013 105.295761,24.8273 105.729761,25.6593 C106.162761,26.4933 106.557761,27.2623 106.913761,27.9663 C107.335761,28.7563 107.750761,29.5263 108.154761,30.2783 L106.469761,31.1303 L103.386761,25.0333 C102.990761,24.2513 102.514761,23.5453 101.957761,22.9163 C101.400761,22.2873 100.800761,21.7883 100.159761,21.4173 C99.5187607,21.0473 98.8487607,20.8343 98.1517607,20.7793 C97.4547607,20.7243 96.7637607,20.8703 96.0777607,21.2173 C95.3737607,21.5723 94.8347607,22.0313 94.4607607,22.5923 C94.0857607,23.1523 93.8577607,23.8013 93.7767607,24.5363 C93.6947607,25.2723 93.7537607,26.0633 93.9537607,26.9093 C94.1537607,27.7543 94.4857607,28.6353 94.9497607,29.5513 L97.9307607,35.4473 L96.1887607,36.3283 Z" id="Fill-94" fill="#000000"></path>
                        <path d="M117.858161,21.2248 C117.997161,20.3948 118.001161,19.5868 117.872161,18.8028 C117.742161,18.0188 117.511161,17.3128 117.180161,16.6868 C116.848161,16.0598 116.424161,15.5368 115.910161,15.1178 C115.395161,14.6978 114.827161,14.4238 114.207161,14.2958 C114.132161,14.2798 114.081161,14.2648 114.053161,14.2518 C114.033161,14.2598 114.016161,14.2608 114.003161,14.2548 C113.988161,14.2488 113.972161,14.2488 113.952161,14.2568 L113.555161,14.2038 C113.047161,14.1928 112.545161,14.2828 112.047161,14.4738 C111.469161,14.6958 110.928161,15.0398 110.422161,15.5078 C109.872161,16.0388 109.413161,16.6608 109.046161,17.3718 C108.679161,18.0838 108.430161,18.8658 108.299161,19.7148 C108.161161,20.5448 108.156161,21.3528 108.286161,22.1368 C108.415161,22.9208 108.646161,23.6258 108.978161,24.2528 C109.309161,24.8798 109.733161,25.4038 110.248161,25.8228 C110.762161,26.2418 111.340161,26.5118 111.981161,26.6318 C112.007161,26.6438 112.028161,26.6538 112.043161,26.6598 C112.056161,26.6648 112.073161,26.6638 112.093161,26.6578 C112.215161,26.6788 112.382161,26.6958 112.591161,26.7048 C113.720161,26.7308 114.765161,26.2948 115.724161,25.4018 C116.290161,24.9108 116.754161,24.3038 117.117161,23.5818 C117.480161,22.8608 117.727161,22.0748 117.858161,21.2248 L117.858161,21.2248 Z M115.217161,5.5798 L122.539161,24.6728 L120.716161,25.3718 L119.811161,23.0118 C119.461161,23.9458 118.929161,24.7778 118.215161,25.5078 C117.502161,26.2398 116.647161,26.7948 115.651161,27.1768 C114.655161,27.5598 113.629161,27.7128 112.572161,27.6388 C112.430161,27.6238 112.263161,27.6088 112.074161,27.5898 C111.931161,27.5758 111.818161,27.5498 111.736161,27.5138 C111.613161,27.4928 111.453161,27.4618 111.256161,27.4228 C110.163161,27.1348 109.181161,26.6148 108.310161,25.8628 C107.439161,25.1118 106.786161,24.1678 106.350161,23.0328 C105.999161,22.1178 105.846161,21.1818 105.891161,20.2278 C105.937161,19.2738 106.147161,18.3758 106.521161,17.5358 C106.896161,16.6948 107.424161,15.9438 108.108161,15.2818 C108.791161,14.6208 109.590161,14.1138 110.506161,13.7618 C111.124161,13.5258 111.740161,13.3738 112.355161,13.3098 C112.970161,13.2458 113.570161,13.2608 114.155161,13.3568 C114.175161,13.3488 114.199161,13.3518 114.226161,13.3638 C114.246161,13.3558 114.274161,13.3688 114.309161,13.4008 C115.064161,13.5228 115.756161,13.7478 116.385161,14.0788 L113.395161,6.2798 L115.217161,5.5798 Z" id="Fill-96" fill="#000000"></path>
                        <polygon id="Fill-98" fill="#000000" points="124.552061 24.1876 118.529061 4.6476 120.394061 4.0726 126.417061 23.6126"></polygon>
                        <polygon id="Fill-100" fill="#000000" points="137.208261 5.5509 134.341261 28.5159 133.160261 28.8029 133.935261 22.3889 123.871261 8.8019 126.202261 8.2339 134.253261 19.6439 135.809261 5.8919"></polygon>
                        <polygon id="Fill-102" fill="#000000" points="168.282461 2.1994 163.741461 17.3424 161.794461 17.4804 157.576461 5.0434 155.123461 17.9534 153.207461 18.0894 146.576461 3.7374 148.970461 3.5674 154.067461 17.5474 156.568461 3.0294 158.291461 2.9074 162.813461 16.9274 165.888461 2.3694"></polygon>
                        <path d="M180.573961,12.8771 C181.037961,12.1311 181.373961,11.3681 181.582961,10.5881 C181.791961,9.8081 181.865961,9.0531 181.805961,8.3231 C181.745961,7.5951 181.564961,6.9301 181.262961,6.3271 C180.960961,5.7251 180.531961,5.2291 179.973961,4.8381 C179.932961,4.8141 179.869961,4.7791 179.786961,4.7321 L179.412961,4.5231 C178.954961,4.2861 178.448961,4.1541 177.894961,4.1271 C177.276961,4.0971 176.630961,4.2051 175.956961,4.4491 C174.435961,4.9731 173.190961,5.9801 172.219961,7.4701 C171.756961,8.2161 171.419961,8.9801 171.210961,9.7601 C171.001961,10.5391 170.922961,11.2881 170.972961,12.0071 C171.022961,12.7251 171.203961,13.3911 171.515961,14.0031 C171.826961,14.6171 172.262961,15.1081 172.821961,15.4771 L172.912961,15.5771 C173.037961,15.6481 173.193961,15.7311 173.381961,15.8241 C174.424961,16.3241 175.576961,16.3491 176.837961,15.8981 C177.574961,15.6561 178.261961,15.2731 178.896961,14.7491 C179.530961,14.2251 180.089961,13.6021 180.573961,12.8771 M180.462961,4.0291 C181.517961,4.7221 182.348961,5.6381 182.954961,6.7781 C183.560961,7.9191 183.830961,9.1711 183.763961,10.5341 C183.715961,11.5361 183.471961,12.4741 183.033961,13.3501 C182.594961,14.2261 182.029961,14.9821 181.336961,15.6211 C180.642961,16.2611 179.839961,16.7501 178.925961,17.0891 C178.011961,17.4291 177.043961,17.5741 176.020961,17.5231 C174.934961,17.4711 173.911961,17.1871 172.954961,16.6701 C172.871961,16.6241 172.725961,16.5421 172.518961,16.4251 C172.373961,16.3331 172.270961,16.2651 172.208961,16.2191 C172.104961,16.1491 171.980961,16.0581 171.837961,15.9441 C170.911961,15.2171 170.197961,14.3241 169.693961,13.2661 C169.189961,12.2081 168.968961,11.0631 169.029961,9.8291 C169.078961,8.8091 169.317961,7.8611 169.744961,6.9861 C170.172961,6.1121 170.737961,5.3621 171.440961,4.7361 C172.144961,4.1091 172.952961,3.6271 173.866961,3.2881 C174.780961,2.9491 175.737961,2.8051 176.739961,2.8541 C178.060961,2.9181 179.259961,3.2871 180.337961,3.9591 C180.358961,3.9601 180.368961,3.9721 180.367961,3.9921 C180.410961,3.9941 180.441961,4.0071 180.462961,4.0291" id="Fill-104" fill="#000000"></path>
                        <path d="M192.106261,4.7277 C193.159261,4.5987 194.199261,4.7097 195.226261,5.0627 C196.253261,5.4147 197.163261,5.9817 197.957261,6.7637 L196.435261,7.9027 C195.898261,7.1367 195.266261,6.5497 194.538261,6.1437 C193.809261,5.7377 193.041261,5.5737 192.232261,5.6517 C192.211261,5.6487 192.169261,5.6417 192.106261,5.6327 C192.103261,5.6547 192.090261,5.6637 192.069261,5.6607 C192.048261,5.6577 192.027261,5.6547 192.006261,5.6517 L191.608261,5.7237 C191.360261,5.7957 191.120261,5.8907 190.888261,6.0077 C190.456261,6.1617 190.037261,6.4567 189.629261,6.8947 C189.273261,7.2747 188.922261,7.8057 188.576261,8.4887 C188.231261,9.1717 187.930261,10.0987 187.676261,11.2697 L186.654261,18.3967 L184.722261,18.1197 L186.826261,3.4537 L188.758261,3.7307 L188.399261,6.2327 C188.426261,6.1937 188.463261,6.1567 188.512261,6.1197 C189.550261,5.3417 190.705261,4.8827 191.975261,4.7417 C191.978261,4.7207 191.990261,4.7107 192.011261,4.7137 C192.053261,4.7207 192.085261,4.7247 192.106261,4.7277" id="Fill-106" fill="#000000"></path>
                        <g id="Group-110" transform="translate(196.856261, 0.000000)">
                            <mask id="mask-2" fill="white">
                                <use xlink:href="#path-1"></use>
                            </mask>
                            <g id="Clip-109"></g>
                            <path d="M12.435,22.8117 L9.689,22.1717 L4.799,13.0157 C3.873,13.5887 3.288,14.4057 3.041,15.4647 L1.901,20.3577 L0,19.9157 L4.64,-0.0003 L6.541,0.4427 L3.697,12.7917 L10.729,8.4167 L9.482,8.1267 L9.656,7.3787 L14.082,8.4097 L13.908,9.1577 C12.49,8.8277 11.175,9.0467 9.962,9.8157 L6.495,11.9647 L12.435,22.8117 Z" id="Fill-108" fill="#000000" mask="url(#mask-2)"></path>
                        </g>
                        <path d="M224.994861,19.4748 C225.566861,19.9468 226.144861,20.4338 226.728861,20.9338 C227.312861,21.4338 227.816861,21.9488 228.241861,22.4778 C228.664861,23.0068 228.975861,23.5488 229.172861,24.1048 C229.369861,24.6608 229.361861,25.2398 229.151861,25.8428 C229.056861,26.1478 228.868861,26.4868 228.587861,26.8568 C228.306861,27.2278 227.922861,27.5398 227.434861,27.7968 C226.945861,28.0528 226.332861,28.2038 225.595861,28.2488 C224.856861,28.2938 223.976861,28.1298 222.954861,27.7568 C221.891861,27.3688 221.024861,26.9068 220.351861,26.3708 C219.678861,25.8338 219.160861,25.2668 218.796861,24.6698 C218.432861,24.0738 218.196861,23.4728 218.086861,22.8708 C217.976861,22.2668 217.946861,21.7238 217.996861,21.2398 L220.056861,22.0378 C220.071861,22.4098 220.109861,22.8288 220.168861,23.2978 C220.226861,23.7678 220.373861,24.2308 220.608861,24.6868 C220.843861,25.1448 221.166861,25.5788 221.579861,25.9898 C221.992861,26.4008 222.560861,26.7358 223.284861,26.9928 C224.374861,27.3698 225.219861,27.4608 225.819861,27.2698 C226.419861,27.0778 226.833861,26.6588 227.060861,26.0128 C227.330861,25.3158 227.272861,24.6108 226.884861,23.8988 C226.496861,23.1868 225.684861,22.2708 224.448861,21.1498 C224.396861,21.1068 224.336861,21.0548 224.268861,20.9948 C224.200861,20.9338 224.124861,20.8638 224.040861,20.7858 C223.560861,20.3708 223.091861,19.9428 222.633861,19.5008 C222.174861,19.0598 221.782861,18.6108 221.457861,18.1518 C221.131861,17.6938 220.908861,17.2218 220.786861,16.7398 C220.663861,16.2568 220.693861,15.7518 220.874861,15.2258 C220.990861,14.9268 221.183861,14.5888 221.455861,14.2128 C221.726861,13.8358 222.101861,13.5178 222.580861,13.2558 C223.059861,12.9948 223.651861,12.8388 224.356861,12.7908 C225.061861,12.7438 225.911861,12.9118 226.905861,13.2958 C227.999861,13.7198 228.879861,14.2258 229.543861,14.8148 C230.207861,15.4028 230.705861,16.0068 231.037861,16.6278 C231.369861,17.2488 231.572861,17.8608 231.648861,18.4608 C231.724861,19.0628 231.704861,19.6038 231.586861,20.0838 L229.706861,19.3568 C229.704861,19.2418 229.705861,18.9738 229.709861,18.5508 C229.712861,18.1288 229.622861,17.6548 229.438861,17.1248 C229.253861,16.5958 228.934861,16.0608 228.481861,15.5198 C228.027861,14.9778 227.333861,14.5258 226.398861,14.1638 C225.602861,13.8558 224.861861,13.7908 224.174861,13.9698 C223.487861,14.1498 223.043861,14.4968 222.844861,15.0128 C222.590861,15.6678 222.629861,16.3338 222.962861,17.0108 C223.295861,17.6878 223.966861,18.4958 224.975861,19.4328 C224.995861,19.4408 225.001861,19.4548 224.994861,19.4748" id="Fill-111" fill="#000000"></path>
                        <path d="M242.098361,30.631 C242.825361,30.139 243.443361,29.579 243.952361,28.951 C244.461361,28.324 244.841361,27.668 245.092361,26.983 C245.344361,26.297 245.449361,25.615 245.410361,24.938 C245.370361,24.26 245.175361,23.629 244.826361,23.045 C244.796361,23.007 244.778361,22.974 244.768361,22.944 C244.759361,22.916 244.749361,22.9 244.740361,22.895 C244.730361,22.89 244.721361,22.873 244.712361,22.845 L244.441361,22.528 C244.119361,22.126 243.710361,21.8 243.216361,21.549 C242.644361,21.26 242.015361,21.085 241.329361,21.025 C240.547361,20.964 239.754361,21.041 238.952361,21.257 C238.149361,21.472 237.390361,21.817 236.672361,22.29 C235.944361,22.782 235.326361,23.343 234.817361,23.97 C234.308361,24.597 233.929361,25.254 233.677361,25.94 C233.426361,26.625 233.320361,27.307 233.360361,27.985 C233.399361,28.662 233.594361,29.292 233.944361,29.876 L234.001361,29.977 C234.077361,30.11 234.186361,30.249 234.328361,30.393 C235.077361,31.275 236.120361,31.766 237.455361,31.868 C238.227361,31.948 239.010361,31.878 239.803361,31.657 C240.596361,31.438 241.361361,31.096 242.098361,30.631 M245.601361,22.505 C246.283361,23.568 246.665361,24.748 246.750361,26.046 C246.834361,27.344 246.573361,28.592 245.966361,29.791 C245.504361,30.705 244.899361,31.475 244.152361,32.101 C243.404361,32.727 242.581361,33.184 241.683361,33.47 C240.785361,33.757 239.849361,33.869 238.877361,33.807 C237.904361,33.745 236.961361,33.483 236.047361,33.021 C235.076361,32.529 234.254361,31.861 233.581361,31.019 C233.543361,30.952 233.498361,30.888 233.446361,30.825 C233.393361,30.763 233.339361,30.693 233.283361,30.617 C233.187361,30.474 233.126361,30.359 233.098361,30.273 C233.003361,30.177 232.928361,30.043 232.871361,29.87 C232.625361,29.411 232.427361,28.905 232.277361,28.351 L228.087361,36.631 L226.288361,35.721 L236.056361,16.42 L237.855361,17.33 L236.699361,19.614 C237.626361,19.246 238.612361,19.082 239.657361,19.12 C240.701361,19.159 241.709361,19.424 242.680361,19.915 C243.288361,20.224 243.829361,20.584 244.302361,20.996 C244.775361,21.409 245.188361,21.878 245.544361,22.404 L245.573361,22.419 C245.581361,22.448 245.591361,22.477 245.601361,22.505" id="Fill-113" fill="#000000"></path>
                        <path d="M255.364961,39.2609 C256.129961,38.8679 256.791961,38.3899 257.350961,37.8239 C257.909961,37.2589 258.345961,36.6579 258.658961,36.0219 C258.970961,35.3849 259.145961,34.7359 259.183961,34.0729 C259.219961,33.4089 259.105961,32.7749 258.838961,32.1669 C258.820961,32.1559 258.810961,32.1429 258.807961,32.1279 C258.803961,32.1139 258.799961,32.0909 258.793961,32.0619 C258.775961,32.0499 258.764961,32.0369 258.761961,32.0219 C258.758961,32.0069 258.747961,31.9939 258.730961,31.9829 L258.513961,31.6119 C258.362961,31.4119 258.181961,31.2119 257.969961,31.0099 C257.757961,30.8079 257.534961,30.6309 257.302961,30.4799 C256.783961,30.1419 256.196961,29.9119 255.537961,29.7889 C254.778961,29.6249 254.000961,29.6089 253.203961,29.7389 C252.405961,29.8679 251.624961,30.1299 250.859961,30.5229 C250.093961,30.9149 249.435961,31.3899 248.882961,31.9469 C248.328961,32.5019 247.896961,33.0989 247.583961,33.7359 C247.270961,34.3709 247.092961,35.0269 247.050961,35.6979 C247.006961,36.3699 247.123961,37.0009 247.403961,37.5889 C247.415961,37.6489 247.430961,37.6839 247.448961,37.6959 C247.509961,37.8369 247.596961,37.9959 247.711961,38.1719 C248.017961,38.6009 248.432961,38.9799 248.956961,39.3079 C249.481961,39.6369 250.063961,39.8569 250.703961,39.9679 C251.444961,40.1199 252.218961,40.1339 253.025961,40.0099 C253.831961,39.8859 254.611961,39.6359 255.364961,39.2609 L255.364961,39.2609 Z M263.325961,32.6079 L255.240961,45.0229 L253.604961,43.9569 L255.001961,41.8129 C254.028961,42.0949 253.028961,42.1629 252.003961,42.0179 C250.978961,41.8719 250.010961,41.5019 249.098961,40.9079 C248.204961,40.3259 247.486961,39.5909 246.944961,38.7029 C246.884961,38.6399 246.834961,38.5689 246.795961,38.4919 C246.756961,38.4159 246.721961,38.3429 246.691961,38.2719 C246.624961,38.1779 246.570961,38.0659 246.528961,37.9359 C246.455961,37.8129 246.385961,37.6649 246.319961,37.4939 C245.910961,36.4399 245.756961,35.3389 245.853961,34.1939 C245.949961,33.0479 246.330961,31.9649 246.994961,30.9459 C247.541961,30.1059 248.214961,29.4239 249.013961,28.9009 C249.812961,28.3769 250.661961,28.0209 251.562961,27.8299 C252.463961,27.6399 253.384961,27.6219 254.326961,27.7789 C255.269961,27.9339 256.152961,28.2799 256.974961,28.8149 C257.528961,29.1759 258.010961,29.5879 258.421961,30.0529 C258.831961,30.5169 259.181961,31.0159 259.470961,31.5479 C259.488961,31.5599 259.506961,31.5719 259.524961,31.5829 C259.530961,31.6129 259.536961,31.6429 259.543961,31.6719 C259.870961,32.3429 260.091961,33.0599 260.205961,33.8219 L261.690961,31.5419 L263.325961,32.6079 Z" id="Fill-115" fill="#000000"></path>
                        <path d="M268.141361,49.2453 C268.492361,49.1173 268.852361,48.9423 269.224361,48.7223 L271.063361,50.2133 C270.424361,50.7653 269.713361,51.1843 268.932361,51.4713 C268.150361,51.7583 267.350361,51.9063 266.533361,51.9163 C265.714361,51.9263 264.905361,51.7983 264.103361,51.5333 C263.302361,51.2683 262.562361,50.8603 261.882361,50.3103 C261.037361,49.6253 260.390361,48.8133 259.942361,47.8753 C259.886361,47.7753 259.817361,47.6233 259.735361,47.4203 C259.672361,47.2603 259.630361,47.1433 259.607361,47.0693 C259.548361,46.9393 259.509361,46.7843 259.490361,46.6043 C259.162361,45.5163 259.109361,44.4053 259.329361,43.2693 C259.550361,42.1333 260.042361,41.0943 260.806361,40.1503 C261.423361,39.3903 262.158361,38.7873 263.013361,38.3433 C263.867361,37.8983 264.751361,37.6283 265.665361,37.5343 C266.579361,37.4393 267.494361,37.5223 268.408361,37.7833 C269.322361,38.0453 270.169361,38.4903 270.948361,39.1223 C271.942361,39.9283 272.667361,40.9143 273.123361,42.0793 C273.140361,42.0933 273.157361,42.1063 273.173361,42.1193 C273.176361,42.1493 273.179361,42.1803 273.183361,42.2103 C273.559361,43.2013 273.702361,44.2373 273.610361,45.3153 C273.519361,46.3943 273.197361,47.4103 272.644361,48.3633 L271.178361,47.1753 C271.771361,46.4753 272.182361,45.7243 272.409361,44.9183 C272.635361,44.1133 272.609361,43.3243 272.331361,42.5493 C272.328361,42.5193 272.298361,42.4543 272.242361,42.3533 C272.258361,42.3673 272.267361,42.3813 272.269361,42.3963 C272.270361,42.4113 272.280361,42.4263 272.297361,42.4383 L272.326361,42.5043 L272.297361,42.4383 C272.280361,42.4263 272.270361,42.4113 272.269361,42.3963 C272.267361,42.3813 272.258361,42.3673 272.242361,42.3533 L272.090361,41.9823 C271.846361,41.5383 271.508361,41.1413 271.078361,40.7923 C270.613361,40.4163 270.052361,40.1263 269.393361,39.9223 C267.887361,39.4423 266.311361,39.5243 264.664361,40.1673 C263.876361,40.4623 263.175361,40.8623 262.560361,41.3663 C261.946361,41.8703 261.450361,42.4233 261.073361,43.0233 C260.696361,43.6243 260.454361,44.2523 260.349361,44.9083 C260.244361,45.5633 260.291361,46.2073 260.495361,46.8383 L260.529361,46.9483 C260.588361,47.0783 260.665361,47.2373 260.761361,47.4253 C261.304361,48.4143 262.203361,49.1013 263.456361,49.4853 C264.178361,49.7133 264.942361,49.8043 265.749361,49.7573 C266.555361,49.7103 267.352361,49.5403 268.141361,49.2453" id="Fill-117" fill="#000000"></path>
                        <path d="M276.809361,50.4621 C276.719361,50.4921 276.622361,50.5231 276.517361,50.5531 C276.412361,50.5821 276.307361,50.6201 276.203361,50.6651 L283.113361,57.5121 C283.604361,56.9261 283.944361,56.3021 284.134361,55.6411 C284.323361,54.9791 284.348361,54.3111 284.207361,53.6341 C284.176361,53.6041 284.161361,53.5601 284.161361,53.4991 C284.145361,53.4831 284.138361,53.4691 284.138361,53.4541 C284.137361,53.4401 284.130361,53.4241 284.115361,53.4091 L283.999361,53.0261 C283.814361,52.5751 283.518361,52.1481 283.109361,51.7421 C282.669361,51.3071 282.141361,50.9611 281.522361,50.7061 C280.074361,50.0761 278.503361,49.9951 276.809361,50.4621 M279.413361,59.8831 C279.775361,59.7901 280.136361,59.6521 280.497361,59.4701 L282.180361,61.1371 C281.488361,61.6221 280.739361,61.9701 279.933361,62.1771 C279.126361,62.3841 278.316361,62.4521 277.501361,62.3811 C276.686361,62.3091 275.893361,62.1021 275.123361,61.7581 C274.351361,61.4151 273.648361,60.9281 273.012361,60.2971 C272.254361,59.5461 271.699361,58.6821 271.347361,57.7041 C271.316361,57.6131 271.285361,57.5301 271.255361,57.4551 C271.224361,57.3801 271.201361,57.3051 271.185361,57.2301 C271.170361,57.1541 271.151361,57.0901 271.128361,57.0381 C271.104361,56.9851 271.093361,56.9291 271.093361,56.8681 L271.046361,56.6431 C271.031361,56.5671 271.023361,56.4841 271.022361,56.3941 C270.805361,55.2791 270.863361,54.1681 271.196361,53.0601 C271.528361,51.9511 272.114361,50.9731 272.953361,50.1261 C273.657361,49.4161 274.456361,48.8821 275.351361,48.5251 C276.245361,48.1671 277.152361,47.9861 278.071361,47.9830828 C278.990361,47.9811 279.892361,48.1531 280.775361,48.5051 C281.659361,48.8561 282.449361,49.3761 283.146361,50.0671 C283.616361,50.5321 284.013361,51.0341 284.335361,51.5721 C284.659361,52.1101 284.893361,52.6691 285.039361,53.2491 C285.054361,53.2641 285.069361,53.2781 285.085361,53.2941 C285.084361,53.3241 285.084361,53.3551 285.085361,53.3851 C285.361361,54.4091 285.400361,55.4531 285.202361,56.5181 C285.003361,57.5821 284.573361,58.5681 283.914361,59.4771 L275.390361,51.0311 C274.788361,51.3361 274.246361,51.7001 273.766361,52.1251 C273.285361,52.5491 272.894361,53.0121 272.595361,53.5111 C272.296361,54.0101 272.091361,54.5351 271.980361,55.0861 C271.870361,55.6371 271.876361,56.1841 271.999361,56.7271 C272.015361,56.7721 272.029361,56.8171 272.045361,56.8621 C272.060361,56.9981 272.115361,57.1561 272.206361,57.3371 C272.648361,58.3751 273.466361,59.1411 274.660361,59.6331 C275.371361,59.9461 276.129361,60.1201 276.937361,60.1541 C277.744361,60.1881 278.569361,60.0981 279.413361,59.8831" id="Fill-119" fill="#000000"></path>
                        <path d="M279.032961,66.6232 C278.790961,66.3532 278.678961,66.0462 278.697961,65.6992 C278.715961,65.3522 278.859961,65.0592 279.129961,64.8152 C279.383961,64.5882 279.683961,64.4832 280.030961,64.5022 C280.376961,64.5202 280.670961,64.6642 280.913961,64.9342 C281.141961,65.1872 281.245961,65.4882 281.227961,65.8352 C281.208961,66.1812 281.072961,66.4692 280.819961,66.6962 C280.549961,66.9392 280.240961,67.0512 279.894961,67.0322 C279.548961,67.0142 279.260961,66.8772 279.032961,66.6232" id="Fill-121" fill="#000000"></path>
                        <path d="M323.038861,135.921 C319.837861,114.281 310.090861,93.984 294.067861,75.595 L294.821861,74.938 C310.972861,93.474 320.798861,113.942 324.027861,135.775 L323.038861,135.921 Z" id="Fill-123" fill="#000000"></path>
                    </g>
                </g>
            </g>
        </g>
    </g>
</svg>